<svg width="15" height="55" id="arrowUp" viewBox="0 0 9 30" fill="none" xmlns="http://www.w3.org/2000/svg">
<path d="M8.3857 6.09179L5.25664 0.448651C5.03207 0.0437694 4.65277 0 4.5 0C4.3473 0 3.96794 0.0437694 3.74343 0.448651L0.614314 6.09179C0.39425 6.48871 0.546259 6.83599 0.621888 6.96689C0.697517 7.09778 0.921802 7.40218 1.37095 7.40218H2.89069V9.19391C2.31359 9.32615 1.88254 9.84852 1.88254 10.4734C1.88254 11.0981 2.31359 11.6206 2.89069 11.7528L2.89069 28.369C2.89069 29.2698 3.61125 30 4.50006 30C5.38893 30 6.10943 29.2698 6.10943 28.369V11.7527C6.68653 11.6206 7.11764 11.0981 7.11764 10.4733C7.11764 9.84846 6.68653 9.3261 6.10943 9.19385V7.40212H7.62918C8.07844 7.40212 8.30267 7.09767 8.37824 6.96683C8.45369 6.83599 8.60576 6.48871 8.3857 6.09179Z" fill="#970303"/>
</svg>
