<svg width="18" height="68" id="arrow" viewBox="0 0 18 68" fill="none" xmlns="http://www.w3.org/2000/svg">
<path d="M0.245543 54.0416L6.96852 66.7973C7.45103 67.7125 8.26599 67.8114 8.5942 67.8114C8.9223 67.8114 9.73737 67.7125 10.2198 66.7973L16.9429 54.0416C17.4157 53.1445 17.0891 52.3595 16.9266 52.0636C16.7641 51.7677 16.2822 51.0797 15.3172 51.0797H12.0519V47.0297C13.2919 46.7307 14.218 45.55 14.218 44.1376C14.218 42.7254 13.2919 41.5445 12.0519 41.2456L12.0519 3.68655C12.0519 1.6505 10.5037 -1.48044e-05 8.59408 -1.48044e-05C6.68428 -1.48044e-05 5.13625 1.6505 5.13625 3.68655L5.13625 41.2457C3.8963 41.5445 2.97004 42.7254 2.97004 44.1378C2.97004 45.5501 3.8963 46.7309 5.13625 47.0298V51.0798H1.87097C0.905703 51.0798 0.423937 51.768 0.261566 52.0637C0.0994455 52.3595 -0.227279 53.1445 0.245543 54.0416Z" fill="#970303"/>
</svg>
