<svg width="40" height="40" id="close" viewBox="0 0 35 35" fill="none" xmlns="http://www.w3.org/2000/svg">
<path d="M28.3799 11.5824L31.3834 3.94505C31.5988 3.39704 31.3592 3.07492 31.2461 2.96181C31.133 2.84874 30.8109 2.60911 30.2629 2.82459L22.6255 5.82805C22.0884 6.03932 21.8735 6.4793 21.8061 6.65871C21.7387 6.83812 21.6178 7.29118 21.9503 7.62375L23.0756 8.74905L21.3864 10.4383C20.8344 10.1357 20.0227 10.309 19.4336 10.8981C18.8446 11.4872 18.6712 12.2989 18.9738 12.8509L3.30785 28.5168C2.4586 29.3661 2.30371 30.5881 2.96183 31.2462C3.61999 31.9043 4.84192 31.7494 5.69116 30.9002L21.3572 15.2341C21.9091 15.5368 22.7209 15.3635 23.31 14.7744C23.8991 14.1853 24.0724 13.3736 23.7697 12.8216L25.459 11.1323L26.5843 12.2576C26.917 12.5903 27.37 12.4692 27.5493 12.4018C27.7286 12.3344 28.1686 12.1195 28.3799 11.5824Z" fill="#970303"/>
<path d="M11.5824 5.82805L3.94505 2.82455C3.39704 2.60911 3.07492 2.8487 2.96181 2.96181C2.84874 3.07488 2.60911 3.39704 2.82459 3.94501L5.82805 11.5824C6.03932 12.1195 6.4793 12.3344 6.65871 12.4018C6.83812 12.4692 7.29118 12.5901 7.62375 12.2576L8.74905 11.1323L10.4383 12.8215C10.1357 13.3735 10.309 14.1852 10.8981 14.7743C11.4872 15.3634 12.2989 15.5367 12.8509 15.2341L28.5168 30.9001C29.3661 31.7493 30.5881 31.9042 31.2462 31.2461C31.9043 30.5879 31.7494 29.366 30.9002 28.5168L15.2341 12.8507C15.5368 12.2988 15.3635 11.487 14.7744 10.8979C14.1853 10.3088 13.3736 10.1355 12.8216 10.4382L11.1323 8.74891L12.2576 7.62361C12.5903 7.29095 12.4692 6.83788 12.4018 6.65857C12.3344 6.47934 12.1195 6.03932 11.5824 5.82805Z" fill="#970303"/>
</svg>
