<svg width="35" id="hero" height="35" viewBox="0 0 40 44" fill="none" xmlns="http://www.w3.org/2000/svg">
<path d="M8.12241 0.216875L0.598202 3.49348C0.0583593 3.72865 0 4.12583 0 4.2858C0 4.4457 0.0583593 4.84295 0.598202 5.07805L8.12241 8.35472C8.65162 8.58516 9.11467 8.42599 9.2892 8.34679C9.46373 8.2676 9.86959 8.03273 9.86959 7.56241V5.971L12.2586 5.971C12.4349 6.57531 13.1314 7.02669 13.9645 7.02669C14.7975 7.02669 15.4941 6.57531 15.6704 5.971L37.8255 5.971C39.0265 5.971 40.0001 5.21646 40.0001 4.28574C40.0001 3.35495 39.0265 2.60048 37.8255 2.60048L15.6704 2.60048C15.4941 1.99616 14.7975 1.54473 13.9644 1.54473C13.1313 1.54473 12.4348 1.99616 12.2585 2.60048H9.86951V1.00907C9.86951 0.538621 9.46357 0.30382 9.28912 0.224686C9.11467 0.145672 8.65162 -0.013566 8.12241 0.216875Z" fill="#970303"/>
<path d="M8.12241 17.5941L0.598202 20.8707C0.0583593 21.1059 0 21.5031 0 21.663C0 21.8229 0.0583593 22.2202 0.598202 22.4553L8.12241 25.7319C8.65162 25.9624 9.11467 25.8032 9.2892 25.724C9.46373 25.6448 9.86959 25.41 9.86959 24.9396V23.3482H12.2586C12.4349 23.9525 13.1314 24.4039 13.9645 24.4039C14.7975 24.4039 15.4941 23.9525 15.6704 23.3482L37.8255 23.3482C39.0265 23.3482 40.0001 22.5937 40.0001 21.663C40.0001 20.7322 39.0265 19.9777 37.8255 19.9777L15.6704 19.9777C15.4941 19.3734 14.7975 18.922 13.9644 18.922C13.1313 18.922 12.4348 19.3734 12.2585 19.9777H9.86951V18.3863C9.86951 17.9158 9.46357 17.681 9.28912 17.6019C9.11467 17.5229 8.65162 17.3637 8.12241 17.5941Z" fill="#970303"/>
<path d="M8.12241 34.9714L0.598202 38.248C0.0583593 38.4831 0 38.8803 0 39.0403C0 39.2002 0.0583593 39.5974 0.598202 39.8325L8.12241 43.1092C8.65162 43.3396 9.11467 43.1805 9.2892 43.1013C9.46373 43.0221 9.86959 42.7872 9.86959 42.3169V40.7255H12.2586C12.4349 41.3298 13.1314 41.7812 13.9645 41.7812C14.7975 41.7812 15.4941 41.3298 15.6704 40.7255L37.8255 40.7255C39.0265 40.7255 40.0001 39.9709 40.0001 39.0402C40.0001 38.1094 39.0265 37.355 37.8255 37.355H15.6704C15.4941 36.7506 14.7975 36.2992 13.9644 36.2992C13.1313 36.2992 12.4348 36.7506 12.2585 37.355H9.86951V35.7636C9.86951 35.2931 9.46357 35.0583 9.28912 34.9792C9.11467 34.9002 8.65162 34.7409 8.12241 34.9714Z" fill="#970303"/>
</svg>
