<svg width="71" height="70" id="case" viewBox="0 0 71 70" fill="none" xmlns="http://www.w3.org/2000/svg">
<path d="M55.3481 7.81266L44.4106 1.25016C44.2405 1.14788 44.0458 1.09381 43.8473 1.09375H26.3473C26.1488 1.09381 25.9541 1.14788 25.784 1.25016L14.8465 7.81266C14.6847 7.90985 14.5509 8.04726 14.4579 8.21151C14.3649 8.37576 14.3161 8.56127 14.316 8.75V63.4375C14.3161 63.7276 14.4314 64.0057 14.6365 64.2108L19.0115 68.5858C19.2166 68.7909 19.4947 68.9062 19.7848 68.9062H50.4098C50.6998 68.9062 50.978 68.7909 51.1831 68.5858L55.5581 64.2108C55.7632 64.0057 55.8785 63.7276 55.8785 63.4375V8.75C55.8785 8.56127 55.8296 8.37576 55.7367 8.21151C55.6437 8.04726 55.5098 7.90985 55.3481 7.81266ZM49.316 47.0312H20.8785V44.8438H49.316V47.0312ZM49.316 42.6562H20.8785V36.0938H49.316V42.6562ZM20.8785 49.2188H26.3473V66.7188H20.8785V49.2188ZM28.5348 49.2188H41.6598V66.7188H28.5348V49.2188ZM43.8473 49.2188H49.316V66.7188H43.8473V49.2188ZM26.6503 3.28125H43.5443L49.316 6.74406V33.9062H20.8785V6.74406L26.6503 3.28125ZM16.5035 9.36906L18.691 8.05656V65.1722L16.5035 62.9847V9.36906ZM53.691 62.9847L51.5035 65.1722V8.05656L53.691 9.36906V62.9847Z" fill="white"/>
<path d="M35.0973 26.25C36.4746 26.25 37.8171 25.8166 38.9345 25.0113C40.0518 24.2059 40.8875 23.0694 41.323 21.7628C41.7586 20.4561 41.772 19.0455 41.3613 17.7308C40.9506 16.4161 40.1367 15.2639 39.0348 14.4375L37.7223 16.1875C38.4569 16.7384 38.9995 17.5065 39.2733 18.383C39.5471 19.2595 39.5382 20.1999 39.2478 21.071C38.9574 21.9421 38.4003 22.6998 37.6554 23.2367C36.9105 23.7736 36.0155 24.0625 35.0973 24.0625C34.1791 24.0625 33.2841 23.7736 32.5392 23.2367C31.7943 22.6998 31.2372 21.9421 30.9468 21.071C30.6564 20.1999 30.6475 19.2595 30.9213 18.383C31.1951 17.5065 31.7377 16.7384 32.4723 16.1875L31.1598 14.4375C30.0579 15.2639 29.244 16.4161 28.8333 17.7308C28.4226 19.0455 28.436 20.4561 28.8716 21.7628C29.3071 23.0694 30.1428 24.2059 31.2601 25.0113C32.3775 25.8166 33.7199 26.25 35.0973 26.25Z" fill="#970303"/>
<path d="M34.0035 10.9375H36.191V17.5H34.0035V10.9375Z" fill="#970303"/>
<path d="M40.566 38.2812H42.7535V40.4688H40.566V38.2812Z" fill="white"/>
<path d="M44.941 38.2812H47.1285V40.4688H44.941V38.2812Z" fill="white"/>
<path d="M35.0973 52.5C34.232 52.5 33.3861 52.7566 32.6667 53.2373C31.9472 53.7181 31.3865 54.4013 31.0553 55.2008C30.7242 56.0002 30.6375 56.8799 30.8064 57.7285C30.9752 58.5772 31.3918 59.3567 32.0037 59.9686C32.6156 60.5804 33.3951 60.9971 34.2438 61.1659C35.0924 61.3347 35.9721 61.2481 36.7715 60.917C37.571 60.5858 38.2543 60.0251 38.735 59.3056C39.2157 58.5862 39.4723 57.7403 39.4723 56.875C39.4723 55.7147 39.0114 54.6019 38.1909 53.7814C37.3704 52.9609 36.2576 52.5 35.0973 52.5ZM35.0973 59.0625C34.6647 59.0625 34.2417 58.9342 33.882 58.6938C33.5223 58.4535 33.2419 58.1118 33.0763 57.7121C32.9107 57.3124 32.8674 56.8726 32.9518 56.4482C33.0362 56.0239 33.2446 55.6341 33.5505 55.3282C33.8564 55.0223 34.2462 54.8139 34.6705 54.7295C35.0949 54.6451 35.5347 54.6884 35.9344 54.854C36.3341 55.0196 36.6758 55.3 36.9161 55.6597C37.1565 56.0194 37.2848 56.4424 37.2848 56.875C37.2848 57.4552 37.0543 58.0116 36.6441 58.4218C36.2339 58.832 35.6775 59.0625 35.0973 59.0625Z" fill="white"/>
</svg>
