<svg width="71" height="70" id="cooler" viewBox="0 0 71 70" fill="none" xmlns="http://www.w3.org/2000/svg">
<path d="M12.5302 56.8772H20.1875V61.25C20.1875 61.2522 20.1886 61.2544 20.1886 61.2577C20.193 64.4995 22.5609 67.1913 25.6562 67.713V68.9062C25.6562 69.5111 26.1452 70 26.75 70H44.25C44.8548 70 45.3438 69.5111 45.3438 68.9062V67.713C48.4391 67.1902 50.807 64.4995 50.8114 61.2577C50.8114 61.2544 50.8125 61.2522 50.8125 61.25V56.8772H58.4698C61.4853 56.8772 63.9386 54.4239 63.9386 51.4084V5.46875C63.9386 2.45328 61.4853 0 58.4698 0H12.5302C9.51468 0 7.0614 2.45328 7.0614 5.46875V51.4084C7.0614 54.4239 9.51468 56.8772 12.5302 56.8772ZM22.3761 61.25C22.3761 61.2478 22.375 61.2467 22.375 61.2445V56.8772H23.4687V61.25C23.4687 61.2544 23.4709 61.2566 23.4709 61.2609C23.4753 62.6795 24.3897 63.8783 25.6562 64.33V65.4697C23.775 64.9797 22.3761 63.2822 22.3761 61.25ZM28.9408 56.8772V62.3427H26.75C26.7489 62.3427 26.7489 62.3427 26.7478 62.3427C26.1452 62.3416 25.6573 61.8527 25.6573 61.25C25.6573 61.2478 25.6562 61.2467 25.6562 61.2445V56.8772H28.9408ZM32.2198 56.8772V62.3427H31.1283V56.8772H32.2198ZM36.5937 56.8772V62.3427H34.4073V56.8772H36.5937ZM39.8728 56.8772V62.3427H38.7812V56.8772H39.8728ZM45.3438 56.8772V61.2445C45.3438 61.2467 45.3427 61.2478 45.3427 61.25C45.3427 61.8527 44.8548 62.3416 44.2522 62.3427C44.2511 62.3427 44.2511 62.3427 44.25 62.3427H42.0603V56.8772H45.3438ZM27.8437 67.8125V66.7242C27.8437 66.722 27.8448 66.7209 27.8448 66.7188C27.8448 66.7166 27.8437 66.7155 27.8437 66.7133V64.5302H43.1562V66.7133C43.1562 66.7155 43.1552 66.7166 43.1552 66.7188C43.1552 66.7209 43.1562 66.722 43.1562 66.7242V67.8125H27.8437ZM48.625 61.2445C48.625 61.2467 48.6239 61.2478 48.6239 61.25C48.6239 63.2822 47.225 64.9797 45.3438 65.4686V64.3289C46.6103 63.8772 47.5247 62.6784 47.5291 61.2598C47.5291 61.2566 47.5312 61.2544 47.5312 61.25V56.8772H48.625V61.2445ZM9.2489 5.46875C9.2489 3.65969 10.7211 2.1875 12.5302 2.1875H58.4698C60.2789 2.1875 61.7511 3.65969 61.7511 5.46875V51.4084C61.7511 53.2175 60.2789 54.6897 58.4698 54.6897H49.7297C49.7253 54.6897 49.7231 54.6875 49.7188 54.6875C49.7144 54.6875 49.7122 54.6897 49.7078 54.6897H46.4484C46.4441 54.6897 46.4419 54.6875 46.4375 54.6875C46.4331 54.6875 46.4309 54.6897 46.4266 54.6897H24.5734C24.5691 54.6897 24.5669 54.6875 24.5625 54.6875C24.5581 54.6875 24.5559 54.6897 24.5516 54.6897H21.2922C21.2878 54.6897 21.2856 54.6875 21.2812 54.6875C21.2769 54.6875 21.2747 54.6897 21.2703 54.6897H12.5302C10.7211 54.6897 9.2489 53.2175 9.2489 51.4084V5.46875Z" fill="white"/>
<path d="M12.5466 28.3303C12.54 30.3483 12.7795 32.3794 13.3155 34.382C13.8273 36.2917 14.5919 38.0876 15.5391 39.7644C15.5555 39.8037 15.5795 39.8344 15.6003 39.8726C17.5909 43.353 20.4533 46.2722 24.0156 48.3295C27.5058 50.3442 31.4695 51.4095 35.4781 51.4095C39.5217 51.4095 43.4275 50.3333 46.8389 48.3941C46.8652 48.3842 46.887 48.3678 46.9122 48.3558C50.3805 46.3684 53.3336 43.4864 55.3898 39.924C57.4483 36.3606 58.4217 32.4701 58.4469 28.6223C58.472 28.4736 58.4709 28.3226 58.4359 28.1783C58.3856 24.3141 57.3652 20.5198 55.4686 17.1511C55.4347 17.0483 55.3789 16.9586 55.3155 16.8722C53.3708 13.5253 50.5708 10.617 46.9844 8.54546C43.4931 6.53077 39.5294 5.46655 35.5208 5.46655C31.4761 5.46655 27.5703 6.5428 24.1589 8.48202C24.1359 8.49187 24.1162 8.50608 24.0933 8.51702C20.6217 10.5044 17.6664 13.3875 15.608 16.9531C13.5834 20.4564 12.563 24.3436 12.5433 28.2844C12.5433 28.2997 12.5476 28.315 12.5466 28.3303ZM14.8062 30.2039C15.8355 30.6042 17.2136 30.9991 18.6617 30.9991C20.1941 30.9991 21.803 30.5572 23.1472 29.213C25.2297 27.1305 27.9477 28.4309 28.9681 29.0478C28.9998 29.4 29.0666 29.7423 29.153 30.077C26.8692 30.2837 23.9675 31.3961 23.0761 34.7189C22.3072 37.5889 18.6803 38.1576 17.2048 38.2616C16.4578 36.8648 15.8475 35.3828 15.4275 33.8144C15.107 32.6189 14.9134 31.4125 14.8062 30.2039ZM29.2197 16.0147C26.3584 15.248 25.7952 11.6222 25.6858 10.1456C28.1544 8.81999 30.8887 7.98765 33.7369 7.74155C32.9122 9.86015 32.1116 13.4706 34.7267 16.0869C36.8081 18.1694 35.5087 20.8873 34.8919 21.9078C34.5397 21.9406 34.1962 22.0051 33.8627 22.0916C33.6548 19.8078 32.5425 16.905 29.2197 16.0147ZM44.3211 9.63155C42.547 11.0545 40.0489 13.7801 41.007 17.3545C41.7694 20.2037 39.2756 21.9078 38.2344 22.4809C37.9205 22.3366 37.5934 22.2162 37.2544 22.1222C38.218 20.0419 38.7047 16.9728 36.2733 14.5392C34.1722 12.4381 35.5131 9.00155 36.153 7.67483C38.9759 7.76233 41.7584 8.42952 44.3211 9.63155ZM56.185 26.6689C54.0653 25.8464 50.4636 25.0534 47.8528 27.6653C45.7725 29.7467 43.0523 28.4462 42.0319 27.8305C42.0002 27.4783 41.9345 27.1359 41.8481 26.8023C44.1308 26.5956 47.0325 25.4811 47.925 22.1594C48.6917 19.297 52.3066 18.7425 53.7875 18.6276C55.1197 21.1225 55.94 23.858 56.185 26.6689ZM54.3027 37.252C52.8808 35.478 50.1584 32.9842 46.5841 33.9467C43.7403 34.7091 42.0319 32.2142 41.4566 31.173C41.6009 30.8601 41.7212 30.5342 41.8142 30.1973C42.7756 30.6414 43.947 30.9848 45.1709 30.9848C46.5961 30.9848 48.0902 30.5211 49.3972 29.2141C51.4994 27.1108 54.9348 28.4495 56.2616 29.0905C56.1817 31.8522 55.5353 34.627 54.3027 37.252ZM41.7803 40.8625C44.6416 41.6281 45.2059 45.2528 45.3153 46.7305C42.8467 48.055 40.1123 48.8884 37.2642 49.1345C38.0889 47.0148 38.8895 43.4065 36.2744 40.7903C34.193 38.7078 35.4912 35.9898 36.1081 34.9694C36.4603 34.9366 36.8037 34.872 37.1384 34.7856C37.3462 37.0694 38.4575 39.9711 41.7803 40.8625ZM26.6811 47.2434C28.4541 45.8205 30.9522 43.0959 29.9951 39.5226C29.2328 36.6734 31.7255 34.9694 32.7656 34.3951C33.0795 34.5395 33.4066 34.6598 33.7456 34.7539C32.7831 36.8342 32.2964 39.9033 34.7278 42.3369C36.83 44.438 35.488 47.8745 34.8481 49.1991C32.0252 49.1137 29.2437 48.4466 26.6811 47.2434ZM35.5 24.0636C37.9128 24.0636 39.875 26.0258 39.875 28.4386C39.875 30.8514 37.9128 32.8136 35.5 32.8136C33.0872 32.8136 31.125 30.8514 31.125 28.4386C31.125 26.0258 33.0872 24.0636 35.5 24.0636ZM18.4637 40.3112C20.7114 39.9667 24.2322 38.8576 25.1892 35.2844C25.9537 32.433 28.9659 32.2055 30.1537 32.2306C30.3561 32.515 30.577 32.783 30.8198 33.0312C28.9473 34.3525 26.9917 36.7664 27.8809 40.0892C28.6466 42.9494 25.7908 45.2495 24.5658 46.084C22.1245 44.5736 20.0639 42.6125 18.4637 40.3112ZM47.3748 45.4694C47.0281 43.2206 45.9136 39.7042 42.3458 38.7494C39.4966 37.9848 39.268 34.9705 39.292 33.7837C39.5764 33.5814 39.8455 33.3605 40.0927 33.1166C41.415 34.989 43.8289 36.9436 47.1495 36.0576C50.025 35.2887 52.323 38.1576 53.152 39.3783C51.6448 41.813 49.6684 43.8725 47.3748 45.4694ZM52.5275 16.5692C50.2787 16.9181 46.7645 18.0294 45.8108 21.5928C45.0462 24.4442 42.033 24.6706 40.8452 24.6466C40.6428 24.3633 40.4219 24.0942 40.1791 23.8459C42.0516 22.5247 44.0083 20.1108 43.1191 16.7891C42.3523 13.9278 45.2081 11.6276 46.4331 10.792C48.9127 12.3276 50.9558 14.3051 52.5275 16.5692ZM23.6262 11.4067C23.973 13.6544 25.0864 17.1719 28.6542 18.1278C31.5045 18.8923 31.732 21.9056 31.708 23.0934C31.4247 23.2958 31.1556 23.5167 30.9084 23.7595C29.5872 21.8848 27.1744 19.9281 23.8505 20.8195C20.9837 21.5862 18.6792 18.7151 17.8491 17.4956C19.3562 15.062 21.3326 13.0025 23.6262 11.4067ZM16.6951 19.6208C18.1159 21.3926 20.8372 23.8864 24.4159 22.9326C27.2695 22.1714 28.9714 24.6641 29.5434 25.7042C29.398 26.0181 29.2787 26.3451 29.1847 26.6831C27.1044 25.7217 24.0353 25.2339 21.6017 27.6664C19.4919 29.7751 16.0389 28.4178 14.7231 27.7801C14.8073 24.9703 15.4767 22.2053 16.6951 19.6208Z" fill="#970303"/>
</svg>
