<svg width="70" height="70" viewBox="0 0 70 70" fill="none" xmlns="http://www.w3.org/2000/svg">
<g clip-path="url(#clip0)">
<path d="M12.5128 7.69226H12.4962C9.96434 7.72931 7.90508 9.82029 7.90508 12.3534V19.0144H1.03031C0.461289 19.0144 0 19.4756 0 20.0447C0 20.6137 0.461289 21.075 1.03031 21.075H7.90521V26.492H1.03031C0.461289 26.492 0 26.9533 0 27.5224C0 28.0914 0.461289 28.5527 1.03031 28.5527H7.90521V33.9696H1.03031C0.461289 33.9697 0 34.431 0 35.0001C0 35.5691 0.461289 36.0304 1.03031 36.0304H7.90521V41.4473H1.03031C0.461289 41.4473 0 41.9086 0 42.4776C0 43.0466 0.461289 43.5079 1.03031 43.5079H7.90521V48.925H1.03031C0.461289 48.925 0 49.3863 0 49.9553C0 50.5243 0.461289 50.9856 1.03031 50.9856H7.90521V54.5089C7.90521 55.0776 8.36678 55.5392 8.93553 55.5392C9.50428 55.5392 9.96584 55.0776 9.96584 54.5089V12.3535C9.96584 10.9399 11.1143 9.77367 12.5279 9.75165C13.0967 9.74345 13.5514 9.27628 13.5419 8.70617C13.5335 8.14289 13.0747 7.69226 12.5128 7.69226Z" fill="white"/>
<path d="M56.0777 59.8212H12.5677C11.5059 59.8212 10.5607 59.1865 10.1582 58.2042C9.94247 57.6767 9.34214 57.4253 8.81468 57.6409C8.28708 57.8566 8.03579 58.4583 8.2514 58.9844C8.97122 60.7443 10.6652 61.8816 12.5677 61.8816H19.0144V68.9694C19.0144 69.5384 19.4757 69.9997 20.0448 69.9997C20.6138 69.9997 21.0751 69.5384 21.0751 68.9694V61.8816H26.4921V68.9694C26.4921 69.5384 26.9534 69.9997 27.5225 69.9997C28.0915 69.9997 28.5528 69.5384 28.5528 68.9694V61.8816H33.9697V68.9694C33.9697 69.5384 34.431 69.9997 35 69.9997C35.569 69.9997 36.0303 69.5384 36.0303 68.9694V61.8816H41.4473V68.9694C41.4473 69.5384 41.9086 69.9997 42.4776 69.9997C43.0466 69.9997 43.5079 69.5384 43.5079 68.9694V61.8816H48.925V68.9694C48.925 69.5384 49.3862 69.9997 49.9553 69.9997C50.5243 69.9997 50.9856 69.5384 50.9856 68.9694V61.8816H56.0777C56.6464 61.8816 57.108 61.4201 57.108 60.8513C57.108 60.2815 56.6464 59.8212 56.0777 59.8212Z" fill="white"/>
<path d="M48.9739 17.5189H21.0261C19.2099 17.5189 17.7332 18.9958 17.7332 20.8118V48.7611C17.7332 50.5772 19.2101 52.0539 21.0261 52.0539H48.974C50.7902 52.0539 52.2669 50.5771 52.2669 48.7611V20.8118C52.2669 18.9956 50.7901 17.5189 48.9739 17.5189ZM19.7937 20.8118C19.7937 20.1318 20.3459 19.5795 21.026 19.5795H42.3384V30.3403C40.4757 30.7428 39.0044 32.2141 38.602 34.0769H31.0092V28.7934C32.9558 28.4129 34.4285 26.6943 34.4285 24.6377C34.4285 22.3037 32.5285 20.4038 30.1932 20.4038C28.1367 20.4038 26.4183 21.8764 26.0375 23.8217H19.7937V20.8118ZM43.369 32.291C44.9213 32.291 46.1839 33.5548 46.1839 35.1072C46.1839 36.6597 44.9214 37.9221 43.369 37.9221C41.8055 37.9221 40.5527 36.6472 40.5527 35.1072C40.5528 33.5644 41.809 32.291 43.369 32.291ZM30.1932 26.8124C29.0017 26.8124 28.0186 25.8433 28.0186 24.6377C28.0186 23.4398 28.9939 22.4644 30.1932 22.4644C31.3925 22.4644 32.3679 23.4398 32.3679 24.6377C32.3679 25.8474 31.383 26.8124 30.1932 26.8124ZM25.7436 43.652C25.146 43.3168 24.7421 42.6753 24.7421 41.943C24.7421 40.8619 25.6227 39.9826 26.7039 39.9826C27.7851 39.9826 28.6643 40.8619 28.6643 41.943C28.6642 43.4412 27.0438 44.387 25.7436 43.652ZM34.0766 49.9933H27.1641V45.938C29.1657 45.7099 30.7249 44.005 30.7249 41.943C30.7249 39.7257 28.9212 37.922 26.7039 37.922C24.4852 37.922 22.6815 39.7257 22.6815 41.943C22.6815 43.5916 23.6789 45.0135 25.1035 45.6329V49.9933H21.0261C20.3461 49.9933 19.7939 49.4397 19.7939 48.7611V25.8823H26.1447C26.1535 25.8965 26.7072 27.9975 28.9486 28.6862V35.1072C28.9486 35.676 29.4101 36.1376 29.9789 36.1376H34.0766V49.9933ZM50.2063 48.7611C50.2063 49.4397 49.6541 49.9933 48.974 49.9933H36.1372V45.5377H50.2063V48.7611ZM50.2063 43.477H36.1372V36.1376H38.602C39.076 38.3328 41.0335 39.9828 43.369 39.9828C46.0574 39.9828 48.2445 37.7957 48.2445 35.1072C48.2445 32.7718 46.5946 30.8143 44.3993 30.3403L44.399 19.5795H48.9739C49.6539 19.5795 50.2061 20.1318 50.2061 20.8118L50.2063 43.477Z" fill="#970303"/>
<path d="M68.9697 28.5528C69.5387 28.5528 70 28.0915 70 27.5224C70 26.9534 69.5387 26.4921 68.9697 26.4921H62.0948V21.0751H68.9697C69.5387 21.0751 70 20.6138 70 20.0447C70 19.4757 69.5387 19.0144 68.9697 19.0144H62.0948V12.3535C62.0948 9.78318 60.004 7.69098 57.4323 7.69098H50.9856V1.03031C50.9856 0.461289 50.5243 0 49.9553 0C49.3862 0 48.925 0.461289 48.925 1.03031V7.69084H43.5079V1.03031C43.5079 0.461289 43.0466 0 42.4776 0C41.9085 0 41.4473 0.461289 41.4473 1.03031V7.69084H36.0303V1.03031C36.0303 0.461289 35.569 0 35 0C34.431 0 33.9697 0.461289 33.9697 1.03031V7.69084H28.5528V1.03031C28.5528 0.461289 28.0915 0 27.5224 0C26.9534 0 26.4921 0.461289 26.4921 1.03031V7.69084H21.0751V1.03031C21.0751 0.461289 20.6138 0 20.0448 0C19.4757 0 19.0144 0.461289 19.0144 1.03031V7.69084H16.6342C16.064 7.69084 15.6039 8.1524 15.6039 8.72115C15.6039 9.2899 16.064 9.75146 16.6342 9.75146C22.0314 9.75146 53.1128 9.75146 57.4323 9.75146C58.8678 9.75146 60.0342 10.9192 60.0342 12.3534V57.2193C60.0342 57.9377 59.7484 58.6068 59.2278 59.1027C58.8157 59.4956 58.7992 60.1482 59.1921 60.5589C59.3954 60.7718 59.6661 60.8789 59.9381 60.8789C60.1936 60.8789 60.4491 60.7842 60.6497 60.5946C61.5812 59.7058 62.0949 58.5065 62.0949 57.2193V50.9856H68.9698C69.5389 50.9856 70.0002 50.5243 70.0002 49.9553C70.0002 49.3862 69.5389 48.9249 68.9698 48.9249H62.0949V43.5079H68.9698C69.5389 43.5079 70.0002 43.0466 70.0002 42.4776C70.0002 41.9085 69.5389 41.4472 68.9698 41.4472H62.0949V36.0303H68.9698C69.5389 36.0303 70.0002 35.569 70.0002 35C70.0002 34.431 69.5389 33.9697 68.9698 33.9697H62.0949V28.5528H68.9697Z" fill="white"/>
</g>
<defs>
<clipPath id="clip0">
<rect width="70" height="70" fill="white"/>
</clipPath>
</defs>
</svg>