<svg width="51" height="50" id="dvd" viewBox="0 0 51 50" fill="none" xmlns="http://www.w3.org/2000/svg">
<path d="M44.0651 0H6.9686C4.74419 0 2.93317 1.81102 2.93317 4.03543V29.8425H7.97254C7.85443 30.6594 7.77569 31.4764 7.77569 32.2736C7.79537 42.0472 15.7481 50 25.5217 50C35.2954 50 43.2481 42.0472 43.2481 32.2736C43.2481 31.4764 43.1694 30.6594 43.0513 29.8425H48.0907V4.03543H48.1005C48.1005 1.81102 46.2895 0 44.0651 0ZM9.3997 32.2736C9.3997 31.4764 9.45876 30.6594 9.58671 29.8425H18.691C18.4155 30.6201 18.2481 31.4468 18.2481 32.2736C18.2481 34.7441 19.4883 36.9291 21.3879 38.2382L18.7009 46.8504C13.2186 44.2815 9.3997 38.7205 9.3997 32.2736ZM25.5217 36.2992C27.7462 36.2992 29.5572 34.4882 29.5572 32.2638C29.5572 31.3484 29.2422 30.5118 28.7206 29.8327H30.6103C30.9745 30.5906 31.1615 31.4272 31.1615 32.2638C31.1615 35.374 28.632 37.9134 25.5119 37.9134C22.4017 37.9134 19.8623 35.3839 19.8623 32.2638C19.8623 31.4272 20.0493 30.5906 20.4135 29.8327H22.3032C21.7816 30.5118 21.4666 31.3484 21.4666 32.2638C21.4863 34.4882 23.2973 36.2992 25.5217 36.2992ZM23.1005 32.2736C23.1005 30.935 24.1832 29.8524 25.5217 29.8524C26.8603 29.8524 27.943 30.935 27.943 32.2736C27.943 33.6122 26.8603 34.6949 25.5217 34.6949C24.1832 34.685 23.1005 33.6024 23.1005 32.2736ZM25.5217 48.3858C23.6517 48.3858 21.8702 48.0512 20.2068 47.4606L22.8544 39.0059C23.6812 39.3405 24.5867 39.5276 25.5316 39.5276C26.4765 39.5276 27.382 39.3405 28.2088 39.0059L30.8564 47.4606C29.1733 48.0512 27.3918 48.3858 25.5217 48.3858ZM32.3426 46.8504L29.6458 38.2382C31.5355 36.9291 32.7855 34.7441 32.7855 32.2736C32.7855 31.4468 32.6281 30.6201 32.3426 29.8425H41.4469C41.5749 30.6594 41.634 31.4764 41.634 32.2736C41.6438 38.7205 37.8249 44.2815 32.3426 46.8504ZM46.4863 28.2283H4.55718V23.3858H46.4863V28.2283ZM46.4962 21.7717H46.4863H4.55718V4.03543C4.55718 2.69685 5.63986 1.61417 6.97844 1.61417H44.0749C45.4135 1.61417 46.4962 2.69685 46.4962 4.03543V21.7717Z" fill="white"/>
<path d="M9.39968 25H6.17133V26.6142H9.39968V25Z" fill="#970303"/>
<path d="M14.2324 25H11.004V26.6142H14.2324V25Z" fill="white"/>
<path d="M19.0749 25H15.8466V26.6142H19.0749V25Z" fill="white"/>
</svg>
