<svg width="71" height="70" id="gpu" viewBox="0 0 71 70" fill="none" xmlns="http://www.w3.org/2000/svg">
<g clip-path="url(#clip0)">
<path d="M8.58299 12.833H1.58299C0.938767 12.833 0.415955 12.3102 0.415955 11.667C0.415955 11.0228 0.938767 10.5 1.58299 10.5H8.58299C9.2272 10.5 9.75002 11.0228 9.75002 11.667C9.74892 12.3102 9.22611 12.833 8.58299 12.833Z" fill="white"/>
<path d="M8.58299 59.5C7.93877 59.5 7.41595 58.9772 7.41595 58.333V11.667C7.41595 11.0228 7.93877 10.5 8.58299 10.5C9.2272 10.5 9.75002 11.0228 9.75002 11.667V58.3341C9.74892 58.9772 9.22611 59.5 8.58299 59.5Z" fill="white"/>
<path d="M8.58299 35H3.91596C3.27174 35 2.74893 34.4772 2.74893 33.833V24.5C2.74893 23.8558 3.27174 23.333 3.91596 23.333H8.58299C9.22721 23.333 9.75002 23.8558 9.75002 24.5V33.833C9.74893 34.4772 9.22612 35 8.58299 35ZM5.08299 32.6671H7.41596V25.6671H5.08299V32.6671Z" fill="white"/>
<path d="M8.58299 53.667H3.91596C3.27174 53.667 2.74893 53.1442 2.74893 52.5V43.167C2.74893 42.5228 3.27174 42 3.91596 42H8.58299C9.22721 42 9.75002 42.5228 9.75002 43.167V52.5C9.74893 53.1442 9.22612 53.667 8.58299 53.667ZM5.08299 51.333H7.41596V44.333H5.08299V51.333Z" fill="white"/>
<path d="M42.4159 59.5H16.7489C16.1047 59.5 15.5819 58.9772 15.5819 58.333V50.1659C15.5819 49.5217 16.1047 48.9989 16.7489 48.9989H42.4159C43.0602 48.9989 43.583 49.5217 43.583 50.1659V58.333C43.583 58.9772 43.0602 59.5 42.4159 59.5ZM17.9159 57.167H41.2489V51.3341H17.9159V57.167Z" fill="#970303"/>
<path d="M22.583 59.5C21.9388 59.5 21.416 58.9771 21.416 58.3329V54.8329C21.416 54.1887 21.9388 53.6659 22.583 53.6659C23.2272 53.6659 23.75 54.1887 23.75 54.8329V58.3329C23.7489 58.9771 23.2261 59.5 22.583 59.5Z" fill="#970303"/>
<path d="M36.583 59.5C35.9388 59.5 35.416 58.9771 35.416 58.3329V54.8329C35.416 54.1887 35.9388 53.6659 36.583 53.6659C37.2272 53.6659 37.75 54.1887 37.75 54.8329V58.3329C37.7489 58.9771 37.2261 59.5 36.583 59.5Z" fill="#970303"/>
<path d="M54.083 59.5C53.4388 59.5 52.916 58.9771 52.916 58.3329V54.8329C52.916 54.1887 53.4388 53.6659 54.083 53.6659C54.7272 53.6659 55.25 54.1887 55.25 54.8329V58.3329C55.2489 58.9771 54.7261 59.5 54.083 59.5Z" fill="#970303"/>
<path d="M31.9159 59.5C31.2717 59.5 30.7489 58.9771 30.7489 58.3329V54.8329C30.7489 54.1887 31.2717 53.6659 31.9159 53.6659C32.5602 53.6659 33.083 54.1887 33.083 54.8329V58.3329C33.083 58.9771 32.5602 59.5 31.9159 59.5Z" fill="#970303"/>
<path d="M27.2489 59.5C26.6047 59.5 26.0819 58.9771 26.0819 58.3329V54.8329C26.0819 54.1887 26.6047 53.6659 27.2489 53.6659C27.8932 53.6659 28.416 54.1887 28.416 54.8329V58.3329C28.416 58.9771 27.8932 59.5 27.2489 59.5Z" fill="#970303"/>
<path d="M58.7489 59.5H49.4159C48.7717 59.5 48.2489 58.9772 48.2489 58.333V50.1659C48.2489 49.5217 48.7717 48.9989 49.4159 48.9989H58.7489C59.3931 48.9989 59.9159 49.5217 59.9159 50.1659V58.333C59.9159 58.9772 59.3931 59.5 58.7489 59.5ZM50.583 57.167H57.583V51.3341H50.583V57.167Z" fill="#970303"/>
<path d="M8.58299 21H3.91596C3.27174 21 2.74893 20.4771 2.74893 19.8329C2.74893 19.1887 3.27174 18.6659 3.91596 18.6659H8.58299C9.22721 18.6659 9.75002 19.1887 9.75002 19.8329C9.75002 20.4771 9.22612 21 8.58299 21Z" fill="white"/>
<path d="M8.58299 39.6671H3.91596C3.27174 39.6671 2.74893 39.1443 2.74893 38.5C2.74893 37.8558 3.27174 37.333 3.91596 37.333H8.58299C9.22721 37.333 9.75002 37.8558 9.75002 38.5C9.74893 39.1443 9.22612 39.6671 8.58299 39.6671Z" fill="white"/>
<path d="M24.9159 46.667C17.8405 46.667 12.083 40.9095 12.083 33.8341C12.083 26.7586 17.8405 21 24.9159 21C31.9914 21 37.7489 26.7575 37.7489 33.833C37.7489 40.9084 31.9914 46.667 24.9159 46.667ZM24.9159 23.333C19.1256 23.333 14.4159 28.0438 14.4159 33.833C14.4159 39.6222 19.1256 44.333 24.9159 44.333C30.7063 44.333 35.4159 39.6222 35.4159 33.833C35.4159 28.0438 30.7063 23.333 24.9159 23.333Z" fill="white"/>
<path d="M24.9159 38.5C22.3423 38.5 20.2489 36.4065 20.2489 33.8329C20.2489 31.2593 22.3423 29.1659 24.9159 29.1659C27.4895 29.1659 29.583 31.2593 29.583 33.8329C29.583 36.4065 27.4895 38.5 24.9159 38.5ZM24.9159 31.5C23.6286 31.5 22.583 32.5467 22.583 33.8329C22.583 35.1203 23.6297 36.1659 24.9159 36.1659C26.2033 36.1659 27.2489 35.1192 27.2489 33.8329C27.2489 32.5467 26.2033 31.5 24.9159 31.5Z" fill="white"/>
<path d="M63.417 51.333H8.58299C7.93877 51.333 7.41595 50.8102 7.41595 50.166V17.5C7.41595 16.8558 7.93877 16.333 8.58299 16.333H63.417C67.2769 16.333 70.4159 19.4721 70.4159 23.3319V44.3352C70.4159 48.194 67.2769 51.333 63.417 51.333ZM9.74892 49.0001H63.417C65.9895 49.0001 68.083 46.9066 68.083 44.3341V23.3319C68.083 20.7594 65.9895 18.666 63.417 18.666H9.74892V49.0001Z" fill="white"/>
<path d="M24.916 31.5C24.2717 31.5 23.7489 30.9772 23.7489 30.333C23.7489 27.8196 20.5421 25.666 17.916 25.666C17.2717 25.666 16.7489 25.1432 16.7489 24.4989C16.7489 23.8547 17.2717 23.3319 17.916 23.3319C21.6927 23.3319 26.083 26.39 26.083 30.3319C26.083 30.9772 25.5602 31.5 24.916 31.5Z" fill="white"/>
<path d="M31.9159 44.3329C28.1392 44.3329 23.7489 41.2748 23.7489 37.3329C23.7489 36.6887 24.2717 36.1659 24.9159 36.1659C25.5602 36.1659 26.083 36.6887 26.083 37.3329C26.083 39.8464 29.2898 42 31.9159 42C32.5601 42 33.083 42.5228 33.083 43.167C33.083 43.8101 32.5601 44.3329 31.9159 44.3329Z" fill="white"/>
<path d="M15.583 42C14.9388 42 14.416 41.4771 14.416 40.8329C14.416 37.0562 17.4741 32.6659 21.416 32.6659C22.0602 32.6659 22.583 33.1887 22.583 33.8329C22.583 34.4771 22.0602 35 21.416 35C18.9025 35 16.7489 38.2079 16.7489 40.8329C16.7489 41.4771 16.2261 42 15.583 42Z" fill="white"/>
<path d="M28.4159 35C27.7717 35 27.2489 34.4771 27.2489 33.8329C27.2489 33.1887 27.7717 32.6659 28.4159 32.6659C30.9294 32.6659 33.083 29.4579 33.083 26.8329C33.083 26.1887 33.6058 25.6659 34.25 25.6659C34.8942 25.6659 35.417 26.1887 35.417 26.8329C35.4159 30.6096 32.3578 35 28.4159 35Z" fill="white"/>
<path d="M13.367 33.3506C13.0685 33.3506 12.7699 33.2358 12.5424 33.0083C12.0863 32.5533 12.0863 31.815 12.5424 31.3589C13.8406 30.0606 15.793 29.1419 17.7639 28.9034C19.9897 28.6289 21.9453 29.2119 23.2666 30.5342C23.7216 30.9903 23.7216 31.7286 23.2666 32.1836C22.8105 32.6397 22.0722 32.6397 21.6172 32.1836C20.8253 31.3917 19.5249 31.0406 18.0461 31.2189C16.575 31.3972 15.1356 32.0666 14.1939 33.0083C13.9642 33.2358 13.6645 33.3506 13.367 33.3506Z" fill="white"/>
<path d="M31.018 38.8292C29.2308 38.8292 27.6755 38.244 26.5664 37.1328C26.1114 36.6767 26.1114 35.9384 26.5664 35.4834C27.0225 35.0273 27.7608 35.0273 28.2158 35.4834C29.0077 36.2753 30.3092 36.6286 31.7869 36.4481C33.258 36.2698 34.6973 35.6004 35.6391 34.6587C36.0952 34.2026 36.8334 34.2026 37.2884 34.6587C37.7445 35.1137 37.7445 35.852 37.2884 36.3081C35.9902 37.6064 34.0378 38.5251 32.0669 38.7636C31.7103 38.8084 31.3592 38.8292 31.018 38.8292Z" fill="white"/>
<path d="M23.2666 46.5489C22.968 46.5489 22.6694 46.434 22.4419 46.2065C19.771 43.5356 18.8303 38.2692 21.6172 35.4823C22.0733 35.0262 22.8116 35.0262 23.2666 35.4823C23.7227 35.9373 23.7227 36.6756 23.2666 37.1317C21.4892 38.909 22.2341 42.7 24.0913 44.5561C24.5474 45.0122 24.5474 45.7493 24.0913 46.2054C23.8638 46.4351 23.5652 46.5489 23.2666 46.5489Z" fill="white"/>
<path d="M27.39 32.526C27.0914 32.526 26.7928 32.4111 26.5653 32.1836C26.1092 31.7286 26.1092 30.9903 26.5653 30.5342C28.3427 28.7569 27.5978 24.9659 25.7406 23.1099C25.2845 22.6538 25.2845 21.9166 25.7406 21.4605C26.1956 21.0044 26.935 21.0044 27.39 21.4605C30.0609 24.1314 31.0016 29.3978 28.2147 32.1847C27.9883 32.4111 27.6886 32.526 27.39 32.526Z" fill="white"/>
<path d="M52.916 46.667C45.8405 46.667 40.083 40.9095 40.083 33.8341C40.083 26.7586 45.8405 21 52.916 21C59.9914 21 65.7489 26.7575 65.7489 33.833C65.7489 40.9084 59.9914 46.667 52.916 46.667ZM52.916 23.333C47.1257 23.333 42.416 28.0438 42.416 33.833C42.416 39.6222 47.1257 44.333 52.916 44.333C58.7063 44.333 63.416 39.6222 63.416 33.833C63.416 28.0438 58.7063 23.333 52.916 23.333Z" fill="white"/>
<path d="M52.9159 38.5C50.3423 38.5 48.2489 36.4065 48.2489 33.8329C48.2489 31.2593 50.3423 29.1659 52.9159 29.1659C55.4895 29.1659 57.583 31.2593 57.583 33.8329C57.583 36.4065 55.4895 38.5 52.9159 38.5ZM52.9159 31.5C51.6286 31.5 50.583 32.5467 50.583 33.8329C50.583 35.1203 51.6297 36.1659 52.9159 36.1659C54.2022 36.1659 55.2489 35.1192 55.2489 33.8329C55.2489 32.5467 54.2033 31.5 52.9159 31.5Z" fill="white"/>
<path d="M52.9159 31.5C52.2717 31.5 51.7489 30.9772 51.7489 30.333C51.7489 27.8196 48.542 25.666 45.9159 25.666C45.2717 25.666 44.7489 25.1432 44.7489 24.4989C44.7489 23.8547 45.2717 23.3319 45.9159 23.3319C49.6926 23.3319 54.083 26.39 54.083 30.3319C54.083 30.9772 53.5601 31.5 52.9159 31.5Z" fill="white"/>
<path d="M59.9159 44.3329C56.1392 44.3329 51.7489 41.2748 51.7489 37.3329C51.7489 36.6887 52.2717 36.1659 52.9159 36.1659C53.5602 36.1659 54.083 36.6887 54.083 37.3329C54.083 39.8464 57.2898 42 59.9159 42C60.5602 42 61.083 42.5228 61.083 43.167C61.083 43.8101 60.5602 44.3329 59.9159 44.3329Z" fill="white"/>
<path d="M43.583 42C42.9388 42 42.416 41.4771 42.416 40.8329C42.416 37.0562 45.4741 32.6659 49.416 32.6659C50.0602 32.6659 50.583 33.1887 50.583 33.8329C50.583 34.4771 50.0602 35 49.416 35C46.9025 35 44.7489 38.2079 44.7489 40.8329C44.7489 41.4771 44.2261 42 43.583 42Z" fill="white"/>
<path d="M56.4159 35C55.7717 35 55.2489 34.4771 55.2489 33.8329C55.2489 33.1887 55.7717 32.6659 56.4159 32.6659C58.9294 32.6659 61.083 29.4579 61.083 26.8329C61.083 26.1887 61.6058 25.6659 62.25 25.6659C62.8942 25.6659 63.417 26.1887 63.417 26.8329C63.4159 30.6096 60.3578 35 56.4159 35Z" fill="white"/>
<path d="M41.3671 33.3506C41.0685 33.3506 40.7699 33.2358 40.5424 33.0083C40.0863 32.5533 40.0863 31.815 40.5424 31.3589C41.8407 30.0606 43.793 29.1419 45.7639 28.9034C47.9897 28.6289 49.9454 29.2119 51.2666 30.5342C51.7216 30.9903 51.7216 31.7286 51.2666 32.1836C50.8105 32.6397 50.0722 32.6397 49.6172 32.1836C48.8254 31.3917 47.5238 31.0406 46.0461 31.2189C44.575 31.3972 43.1357 32.0666 42.1939 33.0083C41.9643 33.2358 41.6646 33.3506 41.3671 33.3506Z" fill="white"/>
<path d="M59.018 38.8292C57.2308 38.8292 55.6755 38.244 54.5664 37.1328C54.1114 36.6767 54.1114 35.9384 54.5664 35.4834C55.0225 35.0273 55.7608 35.0273 56.2158 35.4834C57.0077 36.2753 58.3081 36.6286 59.7869 36.4481C61.258 36.2698 62.6973 35.6004 63.6391 34.6587C64.0952 34.2026 64.8334 34.2026 65.2884 34.6587C65.7445 35.1137 65.7445 35.852 65.2884 36.3081C63.9902 37.6064 62.0378 38.5251 60.0669 38.7636C59.7103 38.8084 59.3592 38.8292 59.018 38.8292Z" fill="white"/>
<path d="M51.2666 46.5489C50.968 46.5489 50.6694 46.434 50.4419 46.2065C47.771 43.5356 46.8303 38.2692 49.6172 35.4823C50.0733 35.0262 50.8116 35.0262 51.2666 35.4823C51.7227 35.9373 51.7227 36.6756 51.2666 37.1317C49.4892 38.909 50.2341 42.7 52.0913 44.5561C52.5474 45.0122 52.5474 45.7493 52.0913 46.2054C51.8638 46.4351 51.5652 46.5489 51.2666 46.5489Z" fill="white"/>
<path d="M55.39 32.526C55.0914 32.526 54.7928 32.4111 54.5653 32.1836C54.1092 31.7286 54.1092 30.9903 54.5653 30.5342C56.3427 28.7569 55.5978 24.9659 53.7406 23.1099C53.2845 22.6538 53.2845 21.9166 53.7406 21.4605C54.1956 21.0044 54.935 21.0044 55.39 21.4605C58.0609 24.1314 59.0016 29.3978 56.2147 32.1847C55.9883 32.4111 55.6886 32.526 55.39 32.526Z" fill="white"/>
</g>
<defs>
<clipPath>
<rect width="70" height="70" fill="white" transform="translate(0.415955)"/>
</clipPath>
</defs>
</svg>
