<svg width="50" id="helmet" height="50" viewBox="0 0 50 50" fill="none" xmlns="http://www.w3.org/2000/svg">
<path d="M49.489 17.1123C48.1645 11.4936 44.4432 6.66682 39.0105 3.52133C33.5779 0.375848 27.0843 -0.711909 20.7258 0.458545C17.5128 1.05003 14.5263 2.18021 11.8493 3.8179L10.7183 4.50968L12.7079 8.45681C15.4463 7.37022 18.4538 6.82058 21.6761 6.82058C22.5277 6.82058 23.3672 6.86681 24.1927 6.9543V4.7215H27.5112V7.55028C29.5631 8.07568 31.4861 8.87107 33.2285 9.88962L35.4388 7.35673L38.0668 9.14751L35.8443 11.6942C37.2876 12.8624 38.5458 14.2061 39.5758 15.6868L42.8713 14.8372L43.8006 17.6523L41.1063 18.3468C42.1144 20.5154 42.6718 22.8879 42.6718 25.3737V28.4505H48.7281L49.0722 27.3875C50.1468 24.0674 50.2909 20.5143 49.489 17.1123Z" fill="#970303"/>
<path d="M39.3533 25.3738C39.3533 16.7605 31.4233 9.75296 21.6761 9.75296C16.5335 9.75296 9.59791 11.4366 4.84711 19.1532C7.82228 21.5172 11.2229 23.1967 14.9887 24.1592C16.0334 23.4288 17.3515 22.9911 18.784 22.9911C22.1635 22.9911 24.9129 25.4207 24.9129 28.407C24.9129 30.3735 23.7205 32.0983 21.9413 33.0472C23.3639 34.3625 24.3784 36.0887 24.6106 37.6593C25.698 45.0122 30.4585 49.2936 30.6606 49.4722L31.1464 49.9017H34.0857C35.7399 49.9017 37.338 49.5919 38.8359 48.9809C40.3169 48.3787 41.6584 47.4814 42.7174 46.3852L43.5301 45.5439L42.8378 44.6223C40.5267 41.5458 39.3533 39.3362 39.3533 35.7971V25.3738Z" fill="#970303"/>
<path d="M12.655 28.4071C12.655 27.8022 12.7695 27.2209 12.9775 26.6772C8.46174 25.3542 4.43991 23.0956 0.99926 19.9443L0.967181 19.914L0.578581 19.5374L0.547387 19.7492C0.51033 19.9999 0.475375 20.2363 0.442301 20.4615C0.24164 21.8282 0.114209 22.7561 0.0501612 23.604C-0.0666509 25.1495 0.0264891 26.4319 0.267857 29.6329L0.376815 31.0815L1.36762 31.075C1.40335 31.0716 4.93603 31.0753 7.26353 33.1167C8.53928 34.2354 9.22279 35.786 9.29845 37.7297L8.42192 38.5376C7.85091 38.8953 5.55825 40.4621 5.55825 42.559V47.067H1.48454V49.9995L9.66559 50C15.2511 50 18.5858 47.631 18.5858 43.6628V34.3942V33.8188C15.2978 33.7257 12.655 31.3348 12.655 28.4071Z" fill="#970303"/>
<path d="M18.784 30.8906C20.3337 30.8906 21.5944 29.7766 21.5944 28.4071C21.5944 27.0377 20.3337 25.9237 18.784 25.9237C17.2344 25.9237 15.9736 27.0377 15.9736 28.4071C15.9736 29.7765 17.2343 30.8906 18.784 30.8906Z" fill="#970303"/>
</svg>
