<svg width="50" height="50" id="monitor" viewBox="0 0 50 50" fill="none" xmlns="http://www.w3.org/2000/svg">
<path d="M45.2703 39.8649H4.72973C3.83405 39.8638 2.97537 39.5076 2.34204 38.8742C1.7087 38.2409 1.35242 37.3822 1.35135 36.4865V12.1622H2.7027V36.4865C2.7027 37.0241 2.91626 37.5397 3.2964 37.9198C3.67654 38.3 4.19213 38.5136 4.72973 38.5136H45.2703C45.8079 38.5136 46.3235 38.3 46.7036 37.9198C47.0837 37.5397 47.2973 37.0241 47.2973 36.4865V6.7568C47.2973 6.2192 47.0837 5.70361 46.7036 5.32347C46.3235 4.94333 45.8079 4.72977 45.2703 4.72977H4.72973C4.19213 4.72977 3.67654 4.94333 3.2964 5.32347C2.91626 5.70361 2.7027 6.2192 2.7027 6.7568V9.4595H1.35135V6.7568C1.35242 5.86112 1.7087 5.00244 2.34204 4.36911C2.97537 3.73577 3.83405 3.37949 4.72973 3.37842H45.2703C46.1659 3.37949 47.0246 3.73577 47.658 4.36911C48.2913 5.00244 48.6476 5.86112 48.6486 6.7568V36.4865C48.6476 37.3822 48.2913 38.2409 47.658 38.8742C47.0246 39.5076 46.1659 39.8638 45.2703 39.8649Z" fill="white"/>
<path d="M35.1351 46.6217H14.8649C14.6857 46.6217 14.5138 46.5505 14.3871 46.4238C14.2604 46.2971 14.1892 46.1252 14.1892 45.946C14.1892 42.5676 17.7493 42.5676 18.9189 42.5676H31.0811C32.2507 42.5676 35.8108 42.5676 35.8108 45.946C35.8108 46.1252 35.7396 46.2971 35.6129 46.4238C35.4862 46.5505 35.3143 46.6217 35.1351 46.6217ZM15.6223 45.2703H34.3777C34.1419 44.4386 33.3264 43.919 31.0811 43.919H18.9189C16.6736 43.919 15.8581 44.4386 15.6223 45.2703Z" fill="white"/>
<path d="M30.4054 43.9188H19.5946C19.4154 43.9188 19.2435 43.8476 19.1168 43.7209C18.9901 43.5942 18.9189 43.4224 18.9189 43.2432V39.1891C18.9189 39.0099 18.9901 38.838 19.1168 38.7113C19.2435 38.5846 19.4154 38.5134 19.5946 38.5134H30.4054C30.5846 38.5134 30.7565 38.5846 30.8832 38.7113C31.0099 38.838 31.0811 39.0099 31.0811 39.1891V43.2432C31.0811 43.4224 31.0099 43.5942 30.8832 43.7209C30.7565 43.8476 30.5846 43.9188 30.4054 43.9188ZM20.2703 42.5675H29.7297V39.8648H20.2703V42.5675Z" fill="white"/>
<path d="M2.02704 33.1082H47.973V34.4595H2.02704V33.1082Z" fill="white"/>
<path d="M22.2973 35.8108H27.7027V37.1621H22.2973V35.8108Z" fill="#970303"/>
</svg>
