<svg width="71" height="70" id="mobo" viewBox="0 0 71 70" fill="none" xmlns="http://www.w3.org/2000/svg">
<path d="M68.0205 7.65625H50.5205V6.5625C50.5205 5.95875 50.0316 5.46875 49.4267 5.46875V3.28125H47.2392V5.46875H46.1455V2.1875C46.1455 1.58375 45.6566 1.09375 45.0517 1.09375H38.4892C37.8844 1.09375 37.3955 1.58375 37.3955 2.1875V5.46875H36.3017V3.28125H34.1142V5.46875C33.5094 5.46875 33.0205 5.95875 33.0205 6.5625V7.65625H30.833V6.5625C30.833 5.95875 30.3441 5.46875 29.7392 5.46875V2.1875C29.7392 1.58375 29.2503 1.09375 28.6455 1.09375H19.8955C19.2906 1.09375 18.8017 1.58375 18.8017 2.1875V5.46875C18.1969 5.46875 17.708 5.95875 17.708 6.5625V7.65625H2.39548C1.79063 7.65625 1.30173 8.14625 1.30173 8.75V67.8125C1.30173 68.4173 1.79063 68.9062 2.39548 68.9062H68.0205C68.6253 68.9062 69.1142 68.4173 69.1142 67.8125V8.75C69.1142 8.14625 68.6253 7.65625 68.0205 7.65625ZM40.6767 15.3125V7.65625H42.8642V15.3125H40.6767ZM38.4892 15.3125H35.208V14.2188H37.3955V12.0312H35.208V7.65625H38.4892V15.3125ZM35.208 17.5H48.333V19.6875H35.208V17.5ZM48.333 15.3125H45.0517V7.65625H48.333V12.0312H46.1455V14.2188H48.333V15.3125ZM39.583 3.28125H43.958V5.46875H39.583V3.28125ZM23.1767 9.84375V16.4062H19.8955V7.65625H28.6455V16.4062H25.3642V9.84375H23.1767ZM27.5517 5.46875H25.3642V3.28125H27.5517V5.46875ZM20.9892 3.28125H23.1767V5.46875H20.9892V3.28125ZM66.9267 66.7188H3.48923V9.84375H17.708V17.5C17.708 18.1038 18.1969 18.5938 18.8017 18.5938H29.7392C30.3441 18.5938 30.833 18.1038 30.833 17.5V9.84375H33.0205V20.7812C33.0205 21.385 33.5094 21.875 34.1142 21.875H49.4267C50.0316 21.875 50.5205 21.385 50.5205 20.7812V9.84375H66.9267V66.7188Z" fill="white"/>
<path d="M60.3642 21.875H64.7392C65.3441 21.875 65.833 21.385 65.833 20.7812V12.0312C65.833 11.4275 65.3441 10.9375 64.7392 10.9375H60.3642C59.7594 10.9375 59.2705 11.4275 59.2705 12.0312V20.7812C59.2705 21.385 59.7594 21.875 60.3642 21.875ZM61.458 13.125H63.6455V19.6875H61.458V13.125Z" fill="white"/>
<path d="M52.708 21.875H57.083C57.6878 21.875 58.1767 21.385 58.1767 20.7812V12.0312C58.1767 11.4275 57.6878 10.9375 57.083 10.9375H52.708C52.1031 10.9375 51.6142 11.4275 51.6142 12.0312V20.7812C51.6142 21.385 52.1031 21.875 52.708 21.875ZM53.8017 13.125H55.9892V19.6875H53.8017V13.125Z" fill="white"/>
<path d="M6.2236 14.2188C7.12813 14.2188 7.86423 13.4827 7.86423 12.5781C7.86423 11.6736 7.12813 10.9375 6.2236 10.9375C5.31907 10.9375 4.58298 11.6736 4.58298 12.5781C4.58298 13.4827 5.31907 14.2188 6.2236 14.2188ZM6.2236 12.0312C6.52438 12.0312 6.77048 12.2763 6.77048 12.5781C6.77048 12.88 6.52438 13.125 6.2236 13.125C5.92282 13.125 5.67673 12.88 5.67673 12.5781C5.67673 12.2763 5.92282 12.0312 6.2236 12.0312Z" fill="white"/>
<path d="M19.3486 24.0625C20.2531 24.0625 20.9892 23.3264 20.9892 22.4219C20.9892 21.5173 20.2531 20.7812 19.3486 20.7812C18.4441 20.7812 17.708 21.5173 17.708 22.4219C17.708 23.3264 18.4441 24.0625 19.3486 24.0625ZM19.3486 21.875C19.6494 21.875 19.8955 22.12 19.8955 22.4219C19.8955 22.7237 19.6494 22.9688 19.3486 22.9688C19.0478 22.9688 18.8017 22.7237 18.8017 22.4219C18.8017 22.12 19.0478 21.875 19.3486 21.875Z" fill="white"/>
<path d="M23.7236 24.0625C24.6281 24.0625 25.3642 23.3264 25.3642 22.4219C25.3642 21.5173 24.6281 20.7812 23.7236 20.7812C22.8191 20.7812 22.083 21.5173 22.083 22.4219C22.083 23.3264 22.8191 24.0625 23.7236 24.0625ZM23.7236 21.875C24.0244 21.875 24.2705 22.12 24.2705 22.4219C24.2705 22.7237 24.0244 22.9688 23.7236 22.9688C23.4228 22.9688 23.1767 22.7237 23.1767 22.4219C23.1767 22.12 23.4228 21.875 23.7236 21.875Z" fill="white"/>
<path d="M54.3486 28.4375C55.2531 28.4375 55.9892 27.7014 55.9892 26.7969C55.9892 25.8923 55.2531 25.1562 54.3486 25.1562C53.4441 25.1562 52.708 25.8923 52.708 26.7969C52.708 27.7014 53.4441 28.4375 54.3486 28.4375ZM54.3486 26.25C54.6494 26.25 54.8955 26.495 54.8955 26.7969C54.8955 27.0987 54.6494 27.3438 54.3486 27.3438C54.0478 27.3438 53.8017 27.0987 53.8017 26.7969C53.8017 26.495 54.0478 26.25 54.3486 26.25Z" fill="white"/>
<path d="M49.9736 25.1562C49.0691 25.1562 48.333 25.8923 48.333 26.7969C48.333 27.7014 49.0691 28.4375 49.9736 28.4375C50.8781 28.4375 51.6142 27.7014 51.6142 26.7969C51.6142 25.8923 50.8781 25.1562 49.9736 25.1562ZM49.9736 27.3438C49.6728 27.3438 49.4267 27.0987 49.4267 26.7969C49.4267 26.495 49.6728 26.25 49.9736 26.25C50.2744 26.25 50.5205 26.495 50.5205 26.7969C50.5205 27.0987 50.2744 27.3438 49.9736 27.3438Z" fill="white"/>
<path d="M34.6611 26.25C35.5656 26.25 36.3017 25.5139 36.3017 24.6094C36.3017 23.7048 35.5656 22.9688 34.6611 22.9688C33.7566 22.9688 33.0205 23.7048 33.0205 24.6094C33.0205 25.5139 33.7566 26.25 34.6611 26.25ZM34.6611 24.0625C34.9619 24.0625 35.208 24.3075 35.208 24.6094C35.208 24.9112 34.9619 25.1562 34.6611 25.1562C34.3603 25.1562 34.1142 24.9112 34.1142 24.6094C34.1142 24.3075 34.3603 24.0625 34.6611 24.0625Z" fill="white"/>
<path d="M34.6611 30.625C35.5656 30.625 36.3017 29.8889 36.3017 28.9844C36.3017 28.0798 35.5656 27.3438 34.6611 27.3438C33.7566 27.3438 33.0205 28.0798 33.0205 28.9844C33.0205 29.8889 33.7566 30.625 34.6611 30.625ZM34.6611 28.4375C34.9619 28.4375 35.208 28.6825 35.208 28.9844C35.208 29.2862 34.9619 29.5312 34.6611 29.5312C34.3603 29.5312 34.1142 29.2862 34.1142 28.9844C34.1142 28.6825 34.3603 28.4375 34.6611 28.4375Z" fill="white"/>
<path d="M19.3486 28.4375C20.2531 28.4375 20.9892 27.7014 20.9892 26.7969C20.9892 25.8923 20.2531 25.1562 19.3486 25.1562C18.4441 25.1562 17.708 25.8923 17.708 26.7969C17.708 27.7014 18.4441 28.4375 19.3486 28.4375ZM19.3486 26.25C19.6494 26.25 19.8955 26.495 19.8955 26.7969C19.8955 27.0987 19.6494 27.3438 19.3486 27.3438C19.0478 27.3438 18.8017 27.0987 18.8017 26.7969C18.8017 26.495 19.0478 26.25 19.3486 26.25Z" fill="white"/>
<path d="M23.7236 28.4375C24.6281 28.4375 25.3642 27.7014 25.3642 26.7969C25.3642 25.8923 24.6281 25.1562 23.7236 25.1562C22.8191 25.1562 22.083 25.8923 22.083 26.7969C22.083 27.7014 22.8191 28.4375 23.7236 28.4375ZM23.7236 26.25C24.0244 26.25 24.2705 26.495 24.2705 26.7969C24.2705 27.0987 24.0244 27.3438 23.7236 27.3438C23.4228 27.3438 23.1767 27.0987 23.1767 26.7969C23.1767 26.495 23.4228 26.25 23.7236 26.25Z" fill="white"/>
<path d="M6.2236 62.3438C5.31907 62.3438 4.58298 63.0798 4.58298 63.9844C4.58298 64.8889 5.31907 65.625 6.2236 65.625C7.12813 65.625 7.86423 64.8889 7.86423 63.9844C7.86423 63.0798 7.12813 62.3438 6.2236 62.3438ZM6.2236 64.5312C5.92282 64.5312 5.67673 64.2852 5.67673 63.9844C5.67673 63.6836 5.92282 63.4375 6.2236 63.4375C6.52438 63.4375 6.77048 63.6836 6.77048 63.9844C6.77048 64.2852 6.52438 64.5312 6.2236 64.5312Z" fill="white"/>
<path d="M64.1924 62.3438C63.2878 62.3438 62.5517 63.0798 62.5517 63.9844C62.5517 64.8889 63.2878 65.625 64.1924 65.625C65.0969 65.625 65.833 64.8889 65.833 63.9844C65.833 63.0798 65.0969 62.3438 64.1924 62.3438ZM64.1924 64.5312C63.8916 64.5312 63.6455 64.2852 63.6455 63.9844C63.6455 63.6836 63.8916 63.4375 64.1924 63.4375C64.4931 63.4375 64.7392 63.6836 64.7392 63.9844C64.7392 64.2852 64.4931 64.5312 64.1924 64.5312Z" fill="white"/>
<path d="M63.6455 56.3281C63.6455 55.4236 62.9094 54.6875 62.0049 54.6875C61.1003 54.6875 60.3642 55.4236 60.3642 56.3281C60.3642 57.2327 61.1003 57.9688 62.0049 57.9688C62.9094 57.9688 63.6455 57.2327 63.6455 56.3281ZM62.0049 56.875C61.7041 56.875 61.458 56.6289 61.458 56.3281C61.458 56.0273 61.7041 55.7812 62.0049 55.7812C62.3056 55.7812 62.5517 56.0273 62.5517 56.3281C62.5517 56.6289 62.3056 56.875 62.0049 56.875Z" fill="white"/>
<path d="M18.8017 57.9688H22.083C22.6878 57.9688 23.1767 57.4798 23.1767 56.875V30.625C23.1767 30.0213 22.6878 29.5312 22.083 29.5312H18.8017C18.1969 29.5312 17.708 30.0213 17.708 30.625V56.875C17.708 57.4798 18.1969 57.9688 18.8017 57.9688ZM19.8955 31.7188H20.9892V55.7812H19.8955V31.7188Z" fill="white"/>
<path d="M15.5205 20.7812H12.2392C11.6344 20.7812 11.1455 21.2713 11.1455 21.875V48.125C11.1455 48.7298 11.6344 49.2188 12.2392 49.2188H15.5205C16.1253 49.2188 16.6142 48.7298 16.6142 48.125V21.875C16.6142 21.2713 16.1253 20.7812 15.5205 20.7812ZM14.4267 47.0312H13.333V22.9688H14.4267V47.0312Z" fill="white"/>
<path d="M5.67673 49.2188H8.95798C9.56282 49.2188 10.0517 48.7298 10.0517 48.125V21.875C10.0517 21.2713 9.56282 20.7812 8.95798 20.7812H5.67673C5.07188 20.7812 4.58298 21.2713 4.58298 21.875V48.125C4.58298 48.7298 5.07188 49.2188 5.67673 49.2188ZM6.77048 22.9688H7.86423V47.0312H6.77048V22.9688Z" fill="white"/>
<path d="M58.1767 53.5938H38.4892C37.8844 53.5938 37.3955 54.0827 37.3955 54.6875V57.9688C37.3955 58.5736 37.8844 59.0625 38.4892 59.0625H58.1767C58.7816 59.0625 59.2705 58.5736 59.2705 57.9688V54.6875C59.2705 54.0827 58.7816 53.5938 58.1767 53.5938ZM57.083 56.875H39.583V55.7812H57.083V56.875Z" fill="white"/>
<path d="M58.1767 60.1562H38.4892C37.8844 60.1562 37.3955 60.6452 37.3955 61.25V64.5312C37.3955 65.1361 37.8844 65.625 38.4892 65.625H58.1767C58.7816 65.625 59.2705 65.1361 59.2705 64.5312V61.25C59.2705 60.6452 58.7816 60.1562 58.1767 60.1562ZM57.083 63.4375H39.583V62.3438H57.083V63.4375Z" fill="white"/>
<path d="M30.833 57.9688C31.4378 57.9688 31.9267 57.4798 31.9267 56.875V26.25C31.9267 25.6463 31.4378 25.1562 30.833 25.1562H27.5517C26.9469 25.1562 26.458 25.6463 26.458 26.25V56.875C26.458 57.4798 26.9469 57.9688 27.5517 57.9688H30.833ZM28.6455 27.3438H29.7392V55.7812H28.6455V27.3438Z" fill="white"/>
<path d="M53.8017 29.5312C53.1969 29.5312 52.708 30.0213 52.708 30.625V35C52.708 35.6037 53.1969 36.0938 53.8017 36.0938H58.1767C58.7816 36.0938 59.2705 35.6037 59.2705 35V30.625C59.2705 30.0213 58.7816 29.5312 58.1767 29.5312H53.8017ZM57.083 33.9062H54.8955V31.7188H57.083V33.9062Z" fill="white"/>
<path d="M46.1455 36.0938H50.5205C51.1253 36.0938 51.6142 35.6037 51.6142 35V30.625C51.6142 30.0213 51.1253 29.5312 50.5205 29.5312H46.1455C45.5406 29.5312 45.0517 30.0213 45.0517 30.625V35C45.0517 35.6037 45.5406 36.0938 46.1455 36.0938ZM47.2392 31.7188H49.4267V33.9062H47.2392V31.7188Z" fill="white"/>
<path d="M38.4892 36.0938H42.8642C43.4691 36.0938 43.958 35.6037 43.958 35V30.625C43.958 30.0213 43.4691 29.5312 42.8642 29.5312H38.4892C37.8844 29.5312 37.3955 30.0213 37.3955 30.625V35C37.3955 35.6037 37.8844 36.0938 38.4892 36.0938ZM39.583 31.7188H41.7705V33.9062H39.583V31.7188Z" fill="white"/>
<path d="M14.4267 50.3125H5.67673C5.07188 50.3125 4.58298 50.8014 4.58298 51.4062V60.1562C4.58298 60.7611 5.07188 61.25 5.67673 61.25H14.4267C15.0316 61.25 15.5205 60.7611 15.5205 60.1562V51.4062C15.5205 50.8014 15.0316 50.3125 14.4267 50.3125ZM13.333 59.0625H6.77048V52.5H13.333V59.0625Z" fill="#970303"/>
<path d="M8.95798 57.9688H11.1455C11.7503 57.9688 12.2392 57.4798 12.2392 56.875V54.6875C12.2392 54.0827 11.7503 53.5938 11.1455 53.5938H8.95798C8.35313 53.5938 7.86423 54.0827 7.86423 54.6875V56.875C7.86423 57.4798 8.35313 57.9688 8.95798 57.9688Z" fill="white"/>
<path d="M17.708 59.0625H26.458V61.25H17.708V59.0625Z" fill="white"/>
<path d="M17.708 62.3438H26.458V64.5312H17.708V62.3438Z" fill="white"/>
<path d="M27.5517 62.3438H29.7392V64.5312H27.5517V62.3438Z" fill="white"/>
<path d="M30.833 62.3438H33.0205V64.5312H30.833V62.3438Z" fill="white"/>
<path d="M34.1142 62.3438H36.3017V64.5312H34.1142V62.3438Z" fill="white"/>
<path d="M63.6455 42.6562H65.833V44.8438H63.6455V42.6562Z" fill="white"/>
<path d="M63.6455 45.9375H65.833V48.125H63.6455V45.9375Z" fill="white"/>
<path d="M63.6455 49.2188H65.833V51.4062H63.6455V49.2188Z" fill="white"/>
<path d="M60.3642 27.3438H65.833V29.5312H60.3642V27.3438Z" fill="white"/>
<path d="M60.3642 30.625H65.833V32.8125H60.3642V30.625Z" fill="white"/>
<path d="M60.3642 33.9062H65.833V36.0938H60.3642V33.9062Z" fill="white"/>
<path d="M14.4267 12.0312H16.6142V18.5938H14.4267V12.0312Z" fill="white"/>
<path d="M11.1455 12.0312H13.333V18.5938H11.1455V12.0312Z" fill="white"/>
<path d="M7.86423 16.4062H10.0517V18.5938H7.86423V16.4062Z" fill="white"/>
<path d="M39.583 39.375C39.583 37.5659 38.1108 36.0938 36.3017 36.0938C34.4927 36.0938 33.0205 37.5659 33.0205 39.375C33.0205 41.1841 34.4927 42.6562 36.3017 42.6562C38.1108 42.6562 39.583 41.1841 39.583 39.375ZM36.3017 40.4688C35.698 40.4688 35.208 39.9787 35.208 39.375C35.208 38.7713 35.698 38.2812 36.3017 38.2812C36.9055 38.2812 37.3955 38.7713 37.3955 39.375C37.3955 39.9787 36.9055 40.4688 36.3017 40.4688Z" fill="white"/>
<path d="M42.8642 39.375V41.5625C42.2594 41.5625 41.7705 42.0514 41.7705 42.6562V42.8969L38.2245 43.7839C37.7367 43.9053 37.3955 44.3417 37.3955 44.8438V49.2188C37.3955 49.7208 37.7367 50.1572 38.2245 50.2797L41.7705 51.1656V51.4062C41.7705 52.0111 42.2594 52.5 42.8642 52.5H53.8017C54.4066 52.5 54.8955 52.0111 54.8955 51.4062V42.6562V39.375H52.708V41.5625H51.6142V39.375H49.4267V41.5625H48.333V39.375H46.1455V41.5625H45.0517V39.375H42.8642ZM39.583 48.3645V45.698L41.7705 45.15V48.9114L39.583 48.3645ZM52.708 50.3125H43.958V48.125H50.5205V45.9375H43.958V43.75H52.708V50.3125Z" fill="white"/>
<path d="M57.083 45.9375H61.458C62.0628 45.9375 62.5517 45.4486 62.5517 44.8438V41.5625C62.5517 40.9577 62.0628 40.4688 61.458 40.4688H57.083C56.4781 40.4688 55.9892 40.9577 55.9892 41.5625V44.8438C55.9892 45.4486 56.4781 45.9375 57.083 45.9375ZM58.1767 42.6562H60.3642V43.75H58.1767V42.6562Z" fill="white"/>
<path d="M55.9892 51.4062C55.9892 52.0111 56.4781 52.5 57.083 52.5H61.458C62.0628 52.5 62.5517 52.0111 62.5517 51.4062V48.125C62.5517 47.5202 62.0628 47.0312 61.458 47.0312H57.083C56.4781 47.0312 55.9892 47.5202 55.9892 48.125V51.4062ZM58.1767 49.2188H60.3642V50.3125H58.1767V49.2188Z" fill="white"/>
</svg>
