<svg width="51" height="50" id="mouse" viewBox="0 0 51 50" fill="none" xmlns="http://www.w3.org/2000/svg">
<g clip-path="url(#clip0)">
<path d="M45.3346 19.5162V10.8445C45.3346 10.44 45.0067 10.1121 44.6022 10.1121C44.1977 10.1121 43.8698 10.44 43.8698 10.8445V19.5158C43.3584 19.5755 42.8579 19.6967 42.3755 19.8812C41.9976 20.0256 41.8084 20.449 41.9529 20.8269C42.0973 21.2047 42.5206 21.3941 42.8986 21.2495C43.4417 21.0419 44.0148 20.9366 44.6022 20.9366C47.2335 20.9366 49.3741 23.0772 49.3741 25.7085C49.3741 26.3185 49.2593 26.9146 49.0326 27.4812L48.9972 27.5706C48.9952 27.5752 48.9933 27.5799 48.9914 27.5847C47.8526 30.4423 47.8707 30.9474 48.542 33.5994C48.633 33.9417 48.6791 34.2952 48.6791 34.6495C48.6791 37.0693 46.573 37.9315 44.602 37.9315C42.631 37.9315 40.525 37.0693 40.525 34.6495C40.525 34.2952 40.5712 33.9417 40.6642 33.591C41.3334 30.9474 41.3515 30.4422 40.2128 27.5847C40.2107 27.5797 40.2086 27.5744 40.2065 27.5695L40.1713 27.48C39.9449 26.9145 39.8301 26.3185 39.8301 25.7085C39.8301 24.6519 40.1683 23.6509 40.8081 22.8138C41.0537 22.4924 40.9922 22.0328 40.6709 21.7872C40.3496 21.5416 39.8897 21.603 39.6442 21.9244C38.8076 23.0191 38.3653 24.3276 38.3653 25.7085C38.3653 26.5058 38.5153 27.2849 38.8108 28.0232L38.8213 28.0496C38.822 28.0516 38.8247 28.0581 38.8255 28.06L38.8331 28.0793C38.8401 28.0974 38.8472 28.1154 38.8547 28.1333C39.8821 30.7122 39.8335 30.9039 39.2465 33.2231C39.1229 33.6882 39.0603 34.1681 39.0603 34.6494C39.0603 37.4886 41.2875 39.3962 44.6022 39.3962C47.917 39.3962 50.1441 37.4886 50.1441 34.6494C50.1441 34.1681 50.0814 33.6882 49.96 33.2314C49.3709 30.9036 49.3222 30.712 50.35 28.1327C50.3573 28.1151 50.3642 28.0974 50.3712 28.0796L50.393 28.0243C50.689 27.2849 50.839 26.5057 50.839 25.7084C50.8389 22.5174 48.4295 19.8801 45.3346 19.5162Z" fill="white"/>
<path d="M33.8387 18.7874H21.0285V17.167C21.0285 16.2192 20.2574 15.4481 19.3095 15.4481H19.1772V13.9183C19.1772 13.4131 19.3738 12.9382 19.7309 12.581C20.088 12.2238 20.563 12.0271 21.068 12.0271H21.1359C22.2304 12.0271 23.1209 12.9117 23.1209 13.9989V14.2771C23.1209 16.3656 24.82 18.0647 26.9085 18.0647C28.9969 18.0647 30.6961 16.3656 30.6961 14.2771V10.8435C30.6961 10.439 30.3681 10.1111 29.9636 10.1111C29.5591 10.1111 29.2312 10.439 29.2312 10.8435V14.2771C29.2312 15.5579 28.1892 16.5999 26.9085 16.5999C25.6277 16.5999 24.5857 15.5579 24.5857 14.2771V13.9989C24.5857 12.104 23.0381 10.5623 21.1359 10.5623H21.068C20.1715 10.5623 19.3288 10.9114 18.695 11.5454C18.0612 12.1792 17.7123 13.0221 17.7124 13.9184V15.4481H17.5803C16.6325 15.4481 15.8614 16.2192 15.8614 17.167V18.7874H9.05133C8.64684 18.7874 8.31891 19.1153 8.31891 19.5198C8.31891 19.9243 8.64684 20.2522 9.05133 20.2522H33.8387C34.2508 20.2522 34.586 20.5875 34.586 20.9995V37.6765C34.586 38.0886 34.2507 38.4238 33.8387 38.4238H3.05104C2.63893 38.4238 2.30377 38.0885 2.30377 37.6765V20.9996C2.30377 20.5875 2.63903 20.2523 3.05104 20.2523H6.12164C6.52614 20.2523 6.85406 19.9244 6.85406 19.5199C6.85406 19.1154 6.52614 18.7875 6.12164 18.7875H3.05104C1.83131 18.7874 0.838928 19.7797 0.838928 20.9996V37.6766C0.838928 38.8964 1.83131 39.8887 3.05104 39.8887H33.8387C35.0586 39.8887 36.0508 38.8963 36.0508 37.6766V20.9996C36.0509 19.7797 35.0586 18.7874 33.8387 18.7874ZM17.3262 17.1671C17.3262 17.027 17.4402 16.913 17.5803 16.913H19.3096C19.4498 16.913 19.5637 17.027 19.5637 17.1671V18.7875H17.3262V17.1671Z" fill="white"/>
<path d="M44.6022 30.9699C45.0067 30.9699 45.3346 30.642 45.3346 30.2375V26.8279C45.9711 26.5458 46.4167 25.909 46.4167 25.1692V23.8442C46.4167 22.8437 45.6027 22.0298 44.6022 22.0298C43.6016 22.0298 42.7877 22.8437 42.7877 23.8442V25.1692C42.7877 25.9091 43.2333 26.5458 43.8698 26.8279V30.2375C43.8698 30.642 44.1977 30.9699 44.6022 30.9699ZM44.2525 23.8442C44.2525 23.6515 44.4093 23.4946 44.6022 23.4946C44.7951 23.4946 44.9518 23.6515 44.9518 23.8442V25.1692C44.9518 25.362 44.795 25.5188 44.6022 25.5188C44.4094 25.5188 44.2525 25.362 44.2525 25.1692V23.8442Z" fill="#970303"/>
<path d="M8.84303 26.3895C8.84303 25.7137 8.29323 25.1638 7.61735 25.1638H4.62575C3.94997 25.1638 3.40006 25.7136 3.40006 26.3895V29.3811C3.40006 30.0569 3.94987 30.6068 4.62575 30.6068H7.61735C8.29313 30.6068 8.84303 30.057 8.84303 29.3811V26.3895ZM7.37819 29.1419H4.865V26.6287H7.37829V29.1419H7.37819Z" fill="#970303"/>
<path d="M12.8414 30.6068H15.833C16.5088 30.6068 17.0587 30.057 17.0587 29.3811V26.3895C17.0587 25.7137 16.5088 25.1638 15.833 25.1638H12.8414C12.1656 25.1638 11.6157 25.7136 11.6157 26.3895V29.3811C11.6157 30.057 12.1655 30.6068 12.8414 30.6068ZM13.0805 26.6287H15.5938V29.1419H13.0805V26.6287Z" fill="white"/>
<path d="M19.8312 26.3895V29.3811C19.8312 30.0569 20.381 30.6068 21.0569 30.6068H24.0485C24.7243 30.6068 25.2742 30.057 25.2742 29.3811V26.3895C25.2742 25.7137 24.7244 25.1638 24.0485 25.1638H21.0569C20.381 25.1638 19.8312 25.7137 19.8312 26.3895ZM21.2961 26.6287H23.8093V29.1419H21.2961V26.6287Z" fill="white"/>
<path d="M28.0467 26.3895V29.3811C28.0467 30.0569 28.5965 30.6068 29.2724 30.6068H32.264C32.9398 30.6068 33.4897 30.057 33.4897 29.3811V26.3895C33.4897 25.7137 32.9399 25.1638 32.264 25.1638H29.2724C28.5965 25.1638 28.0467 25.7137 28.0467 26.3895ZM29.5116 26.6287H32.0249V29.1419H29.5116V26.6287Z" fill="white"/>
<path d="M7.61745 32.0393H4.62575C3.94997 32.0393 3.40006 32.5891 3.40006 33.265V36.2566C3.40006 36.9324 3.94987 37.4823 4.62575 37.4823H7.61735C8.29313 37.4823 8.84303 36.9325 8.84303 36.2566V33.265C8.84303 32.5891 8.29323 32.0393 7.61745 32.0393ZM7.37819 36.0173H4.865V33.5041H7.37829V36.0173H7.37819Z" fill="white"/>
<path d="M11.6157 36.2566C11.6157 36.9324 12.1655 37.4823 12.8414 37.4823H24.0485C24.7243 37.4823 25.2742 36.9325 25.2742 36.2566V33.265C25.2742 32.5892 24.7244 32.0393 24.0485 32.0393H12.8414C12.1656 32.0393 11.6157 32.5891 11.6157 33.265V36.2566ZM13.0805 33.5041H23.8093V36.0174H13.0805V33.5041Z" fill="white"/>
<path d="M28.0467 36.2566C28.0467 36.9324 28.5965 37.4823 29.2724 37.4823H32.264C32.9398 37.4823 33.4897 36.9325 33.4897 36.2566V33.265C33.4897 32.5892 32.9399 32.0393 32.264 32.0393H29.2724C28.5966 32.0393 28.0467 32.5891 28.0467 33.265V36.2566ZM29.5116 33.5041H32.0249V36.0174H29.5116V33.5041Z" fill="white"/>
<path d="M32.7573 23.4944C33.1618 23.4944 33.4897 23.1665 33.4897 22.762C33.4897 22.3575 33.1618 22.0295 32.7573 22.0295H30.7682C30.3637 22.0295 30.0358 22.3575 30.0358 22.762C30.0358 23.1665 30.3637 23.4944 30.7682 23.4944H32.7573Z" fill="white"/>
<path d="M24.5418 23.4944C24.9462 23.4944 25.2742 23.1665 25.2742 22.762C25.2742 22.3575 24.9462 22.0295 24.5418 22.0295H22.5527C22.1482 22.0295 21.8203 22.3575 21.8203 22.762C21.8203 23.1665 22.1482 23.4944 22.5527 23.4944H24.5418Z" fill="white"/>
</g>
<defs>
<clipPath>
<rect width="50" height="50" fill="white" transform="translate(0.838928)"/>
</clipPath>
</defs>
</svg>
