<svg width="71" height="70" id="psu" viewBox="0 0 71 70" fill="none" xmlns="http://www.w3.org/2000/svg">
<g clip-path="url(#clip0)">
<path d="M68.0709 28.4375H67.791L61.4625 7.34222C61.3236 6.87973 60.8969 6.5625 60.4146 6.5625H10.1021C9.61989 6.5625 9.19318 6.87973 9.05432 7.34222L2.72574 28.4375H2.44589C1.23946 28.4375 0.258392 29.4186 0.258392 30.625V61.25C0.258392 62.4564 1.23946 63.4375 2.44589 63.4375H68.0709C69.2773 63.4375 70.2584 62.4564 70.2584 61.25V30.625C70.2584 29.4186 69.2773 28.4375 68.0709 28.4375ZM10.916 8.75H59.6007L65.5069 28.4375H5.0099L10.916 8.75ZM2.44589 61.25V30.625H68.0709L68.072 61.25H2.44589Z" fill="white"/>
<path d="M24.0005 33.1329C23.7959 32.9273 23.5182 32.8125 23.2271 32.8125H12.2896C11.9986 32.8125 11.7209 32.9273 11.5163 33.1329L4.95383 39.6954C4.74821 39.9 4.63339 40.1788 4.63339 40.4688V51.4062C4.63339 51.6962 4.74821 51.975 4.95383 52.1796L11.5163 58.7421C11.7209 58.9477 11.9986 59.0625 12.2896 59.0625H23.2271C23.5182 59.0625 23.7959 58.9477 24.0005 58.7421L30.563 52.1796C30.7686 51.975 30.8834 51.6962 30.8834 51.4062V40.4688C30.8834 40.1788 30.7686 39.9 30.563 39.6954L24.0005 33.1329ZM28.6959 40.9216V44.8438H26.5084V42.457C26.5084 42.1676 26.3936 41.8883 26.188 41.6837L22.0122 37.5079C21.8065 37.3023 21.5283 37.1875 21.2388 37.1875H18.8521V35H22.7743L28.6959 40.9216ZM11.1959 47.0312H13.5388C13.9367 48.5613 15.1346 49.7592 16.6646 50.1571V52.5H14.7308L11.1959 48.9651V47.0312ZM17.7584 48.125C16.552 48.125 15.5709 47.1439 15.5709 45.9375C15.5709 44.7311 16.552 43.75 17.7584 43.75C18.9648 43.75 19.9459 44.7311 19.9459 45.9375C19.9459 47.1439 18.9648 48.125 17.7584 48.125ZM16.6646 41.7179C15.1346 42.1158 13.9367 43.3137 13.5388 44.8438H11.1959V42.9099L14.7308 39.375H16.6646V41.7179ZM18.8521 50.1571C20.3822 49.7592 21.5801 48.5613 21.978 47.0312H24.3209V48.9651L20.786 52.5H18.8521V50.1571ZM21.978 44.8438C21.5801 43.3137 20.3822 42.1158 18.8521 41.7179V39.375H20.786L24.3209 42.9099V44.8438H21.978ZM12.7425 35H16.6646V37.1875H14.2779C13.9869 37.1875 13.7092 37.3023 13.5046 37.5079L9.32883 41.6837C9.12321 41.8893 9.00839 42.1676 9.00839 42.457V44.8438H6.82089V40.9216L12.7425 35ZM6.82089 50.9534V47.0312H9.00839V49.418C9.00839 49.7074 9.12321 49.9867 9.32883 50.1913L13.5046 54.3671C13.7102 54.5727 13.9885 54.6875 14.2779 54.6875H16.6646V56.875H12.7425L6.82089 50.9534ZM22.7743 56.875H18.8521V54.6875H21.2388C21.5299 54.6875 21.8076 54.5727 22.0122 54.3671L26.188 50.1913C26.3936 49.9857 26.5084 49.7074 26.5084 49.418V47.0312H28.6959V50.9534L22.7743 56.875Z" fill="white"/>
<path d="M4.63339 32.8125H6.82089V35H4.63339V32.8125Z" fill="white"/>
<path d="M4.63339 56.875H6.82089V59.0625H4.63339V56.875Z" fill="white"/>
<path d="M48.1997 48.6115C47.9962 48.3076 47.6549 48.125 47.2896 48.125H36.3521C35.9868 48.125 35.6456 48.3076 35.4421 48.6115L33.2546 51.8928C33.1355 52.0722 33.0709 52.2848 33.0709 52.5V57.9688C33.0709 58.5722 33.5596 59.0625 34.1646 59.0625H49.4771C50.0822 59.0625 50.5709 58.5722 50.5709 57.9688V52.5C50.5709 52.2848 50.5063 52.0722 50.3872 51.8928L48.1997 48.6115ZM48.3834 56.875H35.2584V52.8316L36.9375 50.3125H46.7043L48.3834 52.8316V56.875Z" fill="white"/>
<path d="M37.4459 52.5H40.7271V54.6875H37.4459V52.5Z" fill="white"/>
<path d="M42.9146 52.5H46.1959V54.6875H42.9146V52.5Z" fill="white"/>
<path d="M59.3209 32.8125H35.2584C34.052 32.8125 33.0709 33.7936 33.0709 35V43.75C33.0709 44.9564 34.052 45.9375 35.2584 45.9375H59.3209C60.5273 45.9375 61.5084 44.9564 61.5084 43.75V35C61.5084 33.7936 60.5273 32.8125 59.3209 32.8125ZM35.2584 35H37.4459V43.75H35.2584V35ZM39.6334 35H41.8209V43.75H39.6334V35ZM44.0084 35H46.1959V43.75H44.0084V35ZM48.3834 35H50.5709V43.75H48.3834V35ZM52.7584 35H54.9459V43.75H52.7584V35ZM57.1334 43.75V35H59.3209L59.322 43.75H57.1334Z" fill="white"/>
<path d="M63.6959 32.8125H65.8834V35H63.6959V32.8125Z" fill="white"/>
<path d="M63.6959 56.875H65.8834V59.0625H63.6959V56.875Z" fill="white"/>
<path d="M60.0942 50.6329C59.8897 50.4273 59.612 50.3125 59.3209 50.3125H54.9459C54.6548 50.3125 54.3771 50.4273 54.1726 50.6329L53.0788 51.7267C52.8732 51.9323 52.7584 52.21 52.7584 52.5V55.7812C52.7584 56.3847 53.2471 56.875 53.8521 56.875H60.4146C61.0197 56.875 61.5084 56.3847 61.5084 55.7812V52.5C61.5084 52.21 61.3936 51.9312 61.188 51.7267L60.0942 50.6329ZM59.3209 54.6875H54.9459V52.9539L55.3988 52.5H58.868L59.3209 52.9539V54.6875Z" fill="#970303"/>
<path d="M12.2896 10.9375H14.4771V13.125H12.2896V10.9375Z" fill="white"/>
<path d="M56.0396 10.9375H58.2271V13.125H56.0396V10.9375Z" fill="white"/>
<path d="M50.5709 14.2188H21.0396C20.5681 14.2188 20.1515 14.5194 20.0025 14.967L17.815 21.5295C17.7028 21.8627 17.7595 22.2296 17.9651 22.5148C18.1707 22.8005 18.5013 22.9688 18.8521 22.9688H44.0084V20.7812H20.3705L21.8284 16.4062H49.6454L50.3738 20.7812H46.1959V22.9688H51.6646C51.9861 22.9688 52.2916 22.8278 52.4994 22.5816C52.7071 22.3354 52.7968 22.0117 52.744 21.6945L51.6502 15.132C51.5616 14.6059 51.1055 14.2188 50.5709 14.2188Z" fill="white"/>
</g>
<defs>
<clipPath>
<rect width="70" height="70" fill="white" transform="translate(0.258392)"/>
</clipPath>
</defs>
</svg>
