<svg width="71" height="70" id="ram" viewBox="0 0 71 70" fill="none" xmlns="http://www.w3.org/2000/svg">
<g clip-path="url(#clip0)">
<path d="M69.4572 27.4166C70.1015 27.4166 70.6239 26.8943 70.6239 26.25V21.5833C70.6239 20.939 70.1015 20.4166 69.4572 20.4166H1.79057C1.14628 20.4166 0.623901 20.939 0.623901 21.5833V26.25C0.623901 26.8943 1.14628 27.4166 1.79057 27.4166C2.43486 27.4166 2.95723 27.939 2.95723 28.5833C2.95723 29.2276 2.43486 29.75 1.79057 29.75C1.14628 29.75 0.623901 30.2723 0.623901 30.9166V44.9166C0.623901 45.5609 1.14628 46.0833 1.79057 46.0833H2.95723V48.4166C2.95723 49.0609 3.47961 49.5833 4.1239 49.5833H25.1239C25.7682 49.5833 26.2906 49.0609 26.2906 48.4166V46.0833H28.6239V48.4166C28.6239 49.0609 29.1463 49.5833 29.7906 49.5833H67.1239C67.7682 49.5833 68.2906 49.0609 68.2906 48.4166V46.0833H69.4572C70.1015 46.0833 70.6239 45.5609 70.6239 44.9166V30.9166C70.6239 30.2723 70.1015 29.75 69.4572 29.75C68.8129 29.75 68.2906 29.2276 68.2906 28.5833C68.2906 27.939 68.8129 27.4166 69.4572 27.4166ZM23.9572 47.25H5.29057V46.0833H23.9572V47.25ZM65.9572 47.25H30.9572V46.0833H65.9572V47.25ZM68.2906 25.2828C66.4678 25.9261 65.5116 27.9253 66.1548 29.7481C66.5072 30.7463 67.2923 31.5315 68.2906 31.8838V43.75H2.95723V31.8838C2.9969 31.8698 3.0319 31.8488 3.0739 31.8336C3.13923 31.808 3.20107 31.7788 3.26407 31.7485C3.39328 31.6881 3.51869 31.6198 3.63973 31.5443C3.6969 31.5093 3.7564 31.4743 3.8089 31.4358C3.94671 31.3379 4.07723 31.2303 4.19973 31.1138C4.2254 31.0893 4.25457 31.0683 4.27907 31.0438C4.42155 30.8996 4.55148 30.7434 4.66757 30.5771C4.69907 30.5305 4.7259 30.4791 4.75623 30.4313C4.8363 30.3043 4.9079 30.1721 4.9709 30.0358C5.00007 29.9716 5.02573 29.9075 5.0514 29.841C5.10434 29.704 5.14809 29.5637 5.18207 29.421C5.1984 29.3568 5.21707 29.295 5.22873 29.2296C5.31551 28.8063 5.31551 28.3696 5.22873 27.9463C5.21707 27.881 5.1984 27.8191 5.18207 27.755C5.14809 27.6122 5.10434 27.4719 5.0514 27.335C5.02573 27.2685 5.00007 27.2031 4.9709 27.139C4.90761 27.0032 4.83601 26.8715 4.75623 26.7446C4.7259 26.6968 4.69907 26.6455 4.66757 26.5988C4.55148 26.4325 4.42155 26.2764 4.27907 26.1321C4.25457 26.1076 4.2254 26.0866 4.19973 26.0621C4.07723 25.9456 3.94671 25.838 3.8089 25.7401C3.75407 25.7005 3.69223 25.6666 3.63973 25.6316C3.51869 25.5561 3.39328 25.4878 3.26407 25.4275C3.20107 25.3983 3.13923 25.368 3.0739 25.3423C3.0354 25.3271 3.0004 25.3061 2.95723 25.2921V22.75H68.2906V25.2828Z" fill="white"/>
<path d="M39.1239 25.0834H32.1239C31.4796 25.0834 30.9572 25.6057 30.9572 26.25V37.9167C30.9572 38.561 31.4796 39.0834 32.1239 39.0834H39.1239C39.7682 39.0834 40.2905 38.561 40.2905 37.9167V26.25C40.2905 25.6057 39.7682 25.0834 39.1239 25.0834ZM37.9572 36.75H33.2905V27.4167H37.9572V36.75Z" fill="white"/>
<path d="M50.7906 25.0834H43.7906C43.1463 25.0834 42.6239 25.6057 42.6239 26.25V37.9167C42.6239 38.561 43.1463 39.0834 43.7906 39.0834H50.7906C51.4349 39.0834 51.9572 38.561 51.9572 37.9167V26.25C51.9572 25.6057 51.4349 25.0834 50.7906 25.0834ZM49.6239 36.75H44.9572V27.4167H49.6239V36.75Z" fill="white"/>
<path d="M15.7906 25.0834H8.79057C8.14628 25.0834 7.6239 25.6057 7.6239 26.25V37.9167C7.6239 38.561 8.14628 39.0834 8.79057 39.0834H15.7906C16.4349 39.0834 16.9572 38.561 16.9572 37.9167V26.25C16.9572 25.6057 16.4349 25.0834 15.7906 25.0834ZM14.6239 36.75H9.95723V27.4167H14.6239V36.75Z" fill="white"/>
<path d="M27.4573 25.0834H20.4573C19.813 25.0834 19.2906 25.6057 19.2906 26.25V37.9167C19.2906 38.561 19.813 39.0834 20.4573 39.0834H27.4573C28.1015 39.0834 28.6239 38.561 28.6239 37.9167V26.25C28.6239 25.6057 28.1015 25.0834 27.4573 25.0834ZM26.2906 36.75H21.6239V27.4167H26.2906V36.75Z" fill="white"/>
<path d="M62.4573 25.0834H55.4573C54.813 25.0834 54.2906 25.6057 54.2906 26.25V37.9167C54.2906 38.561 54.813 39.0834 55.4573 39.0834H62.4573C63.1015 39.0834 63.6239 38.561 63.6239 37.9167V26.25C63.6239 25.6057 63.1015 25.0834 62.4573 25.0834ZM61.2906 36.75H56.6239V27.4167H61.2906V36.75Z" fill="#970303"/>
</g>
<defs>
<clipPath>
<rect width="70" height="70" fill="white" transform="translate(0.623901)"/>
</clipPath>
</defs>
</svg>
