<svg width="51" height="50" id="speakers" viewBox="0 0 51 50" fill="none" xmlns="http://www.w3.org/2000/svg">
<path d="M43.8185 0H30.6556C29.3528 0 28.2929 1.97139 28.2929 4.39453V45.6055C28.2929 48.0286 29.3528 50 30.6556 50H43.8184C45.1212 50 46.1811 48.0286 46.1811 45.6055V4.39453C46.1811 1.97139 45.1213 0 43.8185 0ZM43.8185 47.0703H30.6556C30.2213 47.0703 29.868 46.4132 29.868 45.6055V4.39453C29.868 3.58682 30.2213 2.92969 30.6556 2.92969H43.8184C44.2527 2.92969 44.606 3.58682 44.606 4.39453V45.6055H44.606C44.606 46.4132 44.2528 47.0703 43.8185 47.0703Z" fill="white"/>
<path d="M37.237 5.61938C35.3691 5.61938 33.8494 8.44605 33.8494 11.9205C33.8494 15.3949 35.3691 18.2216 37.237 18.2216C39.105 18.2216 40.6247 15.395 40.6247 11.9206C40.6247 8.44614 39.105 5.61938 37.237 5.61938ZM37.237 15.2919C36.2376 15.2919 35.4245 13.7795 35.4245 11.9206C35.4245 10.0616 36.2376 8.54907 37.237 8.54907C38.2365 8.54907 39.0496 10.0615 39.0496 11.9205C39.0496 13.7794 38.2365 15.2919 37.237 15.2919Z" fill="white"/>
<path d="M37.2371 20.4075C33.8134 20.4075 31.0281 25.5881 31.0281 31.9561C31.0281 38.3241 33.8134 43.5046 37.2371 43.5046C40.6607 43.5046 43.446 38.324 43.446 31.9561C43.446 25.5882 40.6607 20.4075 37.2371 20.4075ZM37.2371 40.5749C34.682 40.5749 32.6032 36.7085 32.6032 31.9561C32.6032 27.2036 34.682 23.3372 37.2371 23.3372C39.7922 23.3372 41.8709 27.2036 41.8709 31.9561C41.8709 36.7085 39.7922 40.5749 37.2371 40.5749Z" fill="white"/>
<path d="M37.2371 27.0837C35.7927 27.0837 34.6176 29.2694 34.6176 31.9559C34.6176 34.6423 35.7927 36.828 37.2371 36.828C38.6814 36.828 39.8565 34.6423 39.8565 31.9559C39.8565 29.2694 38.6814 27.0837 37.2371 27.0837ZM37.2371 33.8983C36.6612 33.8983 36.1927 33.0269 36.1927 31.9559C36.1927 30.8848 36.6612 30.0134 37.2371 30.0134C37.8129 30.0134 38.2814 30.8848 38.2814 31.9559C38.2814 33.0269 37.8129 33.8983 37.2371 33.8983Z" fill="#970303"/>
<path d="M20.7002 0H7.5373C6.23454 0 5.17465 1.97139 5.17465 4.39453V45.6055C5.17465 48.0286 6.23454 50 7.5373 50H20.7002C22.0029 50 23.0628 48.0286 23.0628 45.6055V4.39453C23.0629 1.97139 22.003 0 20.7002 0ZM20.7002 47.0703H7.5373C7.10305 47.0703 6.74975 46.4132 6.74975 45.6055V4.39453C6.74975 3.58682 7.10305 2.92969 7.5373 2.92969H20.7002C21.1344 2.92969 21.4877 3.58682 21.4877 4.39453V45.6055H21.4878C21.4878 46.4132 21.1345 47.0703 20.7002 47.0703Z" fill="white"/>
<path d="M14.1188 5.61938C12.2508 5.61938 10.7311 8.44605 10.7311 11.9205C10.7311 15.3949 12.2508 18.2216 14.1188 18.2216C15.9867 18.2216 17.5064 15.395 17.5064 11.9206C17.5064 8.44614 15.9867 5.61938 14.1188 5.61938ZM14.1188 15.2919C13.1193 15.2919 12.3062 13.7795 12.3062 11.9206C12.3062 10.0616 13.1193 8.54907 14.1188 8.54907C15.1182 8.54907 15.9313 10.0615 15.9313 11.9205C15.9313 13.7794 15.1182 15.2919 14.1188 15.2919Z" fill="white"/>
<path d="M14.1188 20.4075C10.6952 20.4075 7.90985 25.5881 7.90985 31.9561C7.90985 38.3241 10.6952 43.5046 14.1188 43.5046C17.5424 43.5046 20.3277 38.324 20.3277 31.9561C20.3277 25.5882 17.5424 20.4075 14.1188 20.4075ZM14.1188 40.5749C11.5637 40.5749 9.48495 36.7085 9.48495 31.9561C9.48495 27.2036 11.5637 23.3372 14.1188 23.3372C16.6739 23.3372 18.7526 27.2036 18.7526 31.9561C18.7526 36.7085 16.6739 40.5749 14.1188 40.5749Z" fill="white"/>
<path d="M14.1188 27.0837C12.6744 27.0837 11.4993 29.2694 11.4993 31.9559C11.4993 34.6423 12.6744 36.828 14.1188 36.828C15.5631 36.828 16.7382 34.6423 16.7382 31.9559C16.7382 29.2694 15.5631 27.0837 14.1188 27.0837ZM14.1188 33.8983C13.5429 33.8983 13.0744 33.0269 13.0744 31.9559C13.0744 30.8848 13.5429 30.0134 14.1188 30.0134C14.6946 30.0134 15.1631 30.8848 15.1631 31.9559C15.1631 33.0269 14.6946 33.8983 14.1188 33.8983Z" fill="#970303"/>
</svg>
