<svg width="71" height="70" id="ssd" viewBox="0 0 71 70" fill="none" xmlns="http://www.w3.org/2000/svg">
<g clip-path="url(#clip0)">
<path d="M57.6165 70H13.2913C10.0725 70 7.45447 67.3808 7.45447 64.162V5.838C7.45447 2.61917 10.0736 0 13.2913 0H57.6165C60.8353 0 63.4533 2.61917 63.4533 5.838V64.162C63.4545 67.3808 60.8353 70 57.6165 70ZM13.2913 2.33333C11.3593 2.33333 9.7878 3.906 9.7878 5.838V64.162C9.7878 66.094 11.3605 67.6667 13.2913 67.6667H57.6165C59.5485 67.6667 61.12 66.094 61.12 64.162V5.838C61.12 3.906 59.5485 2.33333 57.6165 2.33333H13.2913Z" fill="white"/>
<path d="M35.4545 39.6666C29.6655 39.6666 24.9545 34.9568 24.9545 29.1666C24.9545 23.3765 29.6655 18.6666 35.4545 18.6666C41.2446 18.6666 45.9545 23.3765 45.9545 29.1666C45.9545 34.9568 41.2446 39.6666 35.4545 39.6666ZM35.4545 21C30.9511 21 27.2878 24.6645 27.2878 29.1666C27.2878 33.6688 30.9511 37.3333 35.4545 37.3333C39.9578 37.3333 43.6211 33.6688 43.6211 29.1666C43.6211 24.6645 39.9578 21 35.4545 21Z" fill="white"/>
<path d="M35.4545 33.8333C32.8808 33.8333 30.7878 31.7403 30.7878 29.1667C30.7878 26.593 32.8808 24.5 35.4545 24.5C38.0281 24.5 40.1211 26.593 40.1211 29.1667C40.1211 31.7403 38.027 33.8333 35.4545 33.8333ZM35.4545 26.8333C34.1676 26.8333 33.1211 27.8798 33.1211 29.1667C33.1211 30.4535 34.1676 31.5 35.4545 31.5C36.7413 31.5 37.7878 30.4535 37.7878 29.1667C37.7878 27.8798 36.7413 26.8333 35.4545 26.8333Z" fill="#970303"/>
<path d="M24.0211 59.5001C20.6763 59.5001 17.9545 56.7782 17.9545 53.4334C17.9545 50.9776 19.4198 48.7784 21.6878 47.8334L32.6731 43.2566C33.1095 43.0746 33.6123 43.1749 33.946 43.5086C34.2808 43.8422 34.38 44.3462 34.198 44.7826L29.6211 55.7667C28.6761 58.0347 26.4781 59.5001 24.0211 59.5001ZM30.9546 46.4999L22.585 49.9859C21.1896 50.5681 20.2878 51.9202 20.2878 53.4322C20.2878 55.4914 21.9631 57.1656 24.0211 57.1656C25.5331 57.1656 26.8865 56.2637 27.4675 54.8672L30.9546 46.4999Z" fill="white"/>
<path d="M30.7878 70H13.2913C10.0725 70 7.45447 67.3809 7.45447 64.162V52.5C7.45447 51.8549 7.97713 51.3334 8.62113 51.3334H14.4545C15.0985 51.3334 15.6211 51.8549 15.6211 52.5C15.6211 57.6462 19.8083 61.8334 24.9545 61.8334H30.7878C31.4318 61.8334 31.9545 62.3549 31.9545 63V68.8334C31.9545 69.4785 31.4318 70 30.7878 70ZM9.7878 53.6667V64.162C9.7878 66.094 11.3605 67.6667 13.2913 67.6667H29.6211V64.1667H24.9545C18.9158 64.1667 13.933 59.5537 13.3461 53.6667H9.7878Z" fill="white"/>
<path d="M35.4545 52.5C33.7348 52.5 31.9626 52.2912 30.187 51.8817C29.8521 51.8047 29.5686 51.583 29.4111 51.2774C29.2548 50.9717 29.2408 50.6124 29.3726 50.295L30.9535 46.4999L24.4633 49.203C24.1203 49.3465 23.7295 49.3174 23.411 49.1249C16.3398 44.8502 12.1211 37.3882 12.1211 29.1667C12.1211 16.3007 22.5885 5.83337 35.4545 5.83337C48.3205 5.83337 58.7878 16.3007 58.7878 29.1667C58.7878 42.0327 48.3205 52.5 35.4545 52.5ZM32.0735 49.8797C33.2168 50.0699 34.3485 50.1667 35.4533 50.1667C47.0325 50.1667 56.4533 40.7459 56.4533 29.1667C56.4533 17.5875 47.0325 8.16671 35.4533 8.16671C23.8741 8.16671 14.4533 17.5875 14.4533 29.1667C14.4533 36.3709 18.0548 42.9264 24.1203 46.8195L32.672 43.2565C33.1083 43.0745 33.6111 43.1749 33.9448 43.5085C34.2796 43.8422 34.3788 44.3462 34.1968 44.7825L32.0735 49.8797Z" fill="white"/>
</g>
<defs>
<clipPath>
<rect width="70" height="70" fill="white" transform="translate(0.419464)"/>
</clipPath>
</defs>
</svg>
